<svg version="1.1" xmlns="http://www.w3.org/2000/svg" xmlns:xlink="http://www.w3.org/1999/xlink" width="1230" height="950"><defs><clipPath id="ReoiefdWQJQK"><path fill="none" stroke="none" d=" M 0 0 L 1230 0 L 1230 950 L 0 950 L 0 0 Z"/></clipPath></defs><g transform="scale(1,1)" clip-path="url(#ReoiefdWQJQK)"><g><rect fill="rgb(255,255,255)" stroke="none" x="0" y="0" width="1230" height="950" fill-opacity="1"/><path fill="rgb(21,101,192)" stroke="none" paint-order="stroke fill markers" fill-rule="evenodd" d=" M 162.4699999999998 373.62000000000114 L 58.17595996590967 555.9694353141706 L 268.24222333077375 555.1160057899186 Z" fill-opacity="0.09803921568627451"/><path fill="none" stroke="rgb(21,101,192)" paint-order="fill stroke markers" d=" M 162.4699999999998 373.62000000000114 L 58.17595996590967 555.9694353141706 L 268.24222333077375 555.1160057899186 Z" stroke-opacity="0.8" stroke-linecap="round" stroke-linejoin="round" stroke-miterlimit="10" stroke-width="2.5"/><path fill="rgb(21,101,192)" stroke="none" paint-order="stroke fill markers" fill-rule="evenodd" d=" M 549.9121833725483 408.44677049161845 L 380.62351441169113 407.86361482345484 L 380.0403587435274 577.1522837843108 L 549.3290277043847 577.7354394524745 Z" fill-opacity="0.09803921568627451"/><path fill="none" stroke="rgb(21,101,192)" paint-order="fill stroke markers" d=" M 549.9121833725483 408.44677049161845 L 380.62351441169113 407.86361482345484 L 380.0403587435274 577.1522837843108 L 549.3290277043847 577.7354394524745 Z" stroke-opacity="0.8" stroke-linecap="round" stroke-linejoin="round" stroke-miterlimit="10" stroke-width="2.5"/><path fill="rgb(21,101,192)" stroke="none" paint-order="stroke fill markers" fill-rule="evenodd" d=" M 888.4699999999999 494.6200000000003 L 805.7335596880373 379.829320935889 L 670.9941702436829 423.0440810029945 L 670.4570882556256 564.5429506042489 L 804.8645427766153 608.7793013204077 Z" fill-opacity="0.09803921568627451"/><path fill="none" stroke="rgb(21,101,192)" paint-order="fill stroke markers" d=" M 888.4699999999999 494.6200000000003 L 805.7335596880373 379.829320935889 L 670.9941702436829 423.0440810029945 L 670.4570882556256 564.5429506042489 L 804.8645427766153 608.7793013204077 Z" stroke-opacity="0.8" stroke-linecap="round" stroke-linejoin="round" stroke-miterlimit="10" stroke-width="2.5"/><path fill="rgb(21,101,192)" stroke="none" paint-order="stroke fill markers" fill-rule="evenodd" d=" M 1131.5262467673235 598.7921099139318 L 1190.97 494.6200000000003 L 1130.4761830650482 391.0541446472438 L 1010.5386128974199 391.66039920841865 L 951.0948596647434 495.8325091223501 L 1011.5886765996951 599.3983644751066 Z" fill-opacity="0.09803921568627451"/><path fill="none" stroke="rgb(21,101,192)" paint-order="fill stroke markers" d=" M 1131.5262467673235 598.7921099139318 L 1190.97 494.6200000000003 L 1130.4761830650482 391.0541446472438 L 1010.5386128974199 391.66039920841865 L 951.0948596647434 495.8325091223501 L 1011.5886765996951 599.3983644751066 Z" stroke-opacity="0.8" stroke-linecap="round" stroke-linejoin="round" stroke-miterlimit="10" stroke-width="2.5"/><path fill="none" stroke="rgb(97,97,97)" paint-order="fill stroke markers" d=" M 283.4699999999998 494.6200000000003 C 283.4699999999998 561.4464547295258 229.2964547295258 615.6199999999994 162.4699999999998 615.6199999999994 C 95.6435452704738 615.6199999999994 41.469999999999786 561.4464547295258 41.469999999999786 494.6200000000003 C 41.469999999999786 427.7935452704748 95.6435452704738 373.62000000000114 162.4699999999998 373.62000000000114 C 229.2964547295258 373.62000000000114 283.4699999999998 427.7935452704748 283.4699999999998 494.6200000000003 Z" stroke-opacity="0.8" stroke-linecap="round" stroke-linejoin="round" stroke-miterlimit="10" stroke-width="2.5"/><path fill="none" stroke="rgb(97,97,97)" paint-order="fill stroke markers" d=" M 585.9699999999999 494.6200000000003 C 585.9699999999999 561.4464547295258 531.7964547295259 615.6199999999994 464.96999999999986 615.6199999999994 C 398.14354527047385 615.6199999999994 343.96999999999986 561.4464547295258 343.96999999999986 494.6200000000003 C 343.96999999999986 427.7935452704748 398.14354527047385 373.62000000000114 464.96999999999986 373.62000000000114 C 531.7964547295259 373.62000000000114 585.9699999999999 427.7935452704748 585.9699999999999 494.6200000000003 Z" stroke-opacity="0.8" stroke-linecap="round" stroke-linejoin="round" stroke-miterlimit="10" stroke-width="2.5"/><path fill="none" stroke="rgb(97,97,97)" paint-order="fill stroke markers" d=" M 888.4699999999999 494.6200000000003 C 888.4699999999999 561.4464547295258 834.296454729526 615.6199999999994 767.4699999999999 615.6199999999994 C 700.643545270474 615.6199999999994 646.4699999999999 561.4464547295258 646.4699999999999 494.6200000000003 C 646.4699999999999 427.7935452704748 700.643545270474 373.62000000000114 767.4699999999999 373.62000000000114 C 834.296454729526 373.62000000000114 888.4699999999999 427.7935452704748 888.4699999999999 494.6200000000003 Z" stroke-opacity="0.8" stroke-linecap="round" stroke-linejoin="round" stroke-miterlimit="10" stroke-width="2.5"/><path fill="none" stroke="rgb(97,97,97)" paint-order="fill stroke markers" d=" M 1190.97 494.6200000000003 C 1190.97 561.4464547295258 1136.796454729526 615.6199999999994 1069.97 615.6199999999994 C 1003.1435452704741 615.6199999999994 948.97 561.4464547295258 948.97 494.6200000000003 C 948.97 427.7935452704748 1003.1435452704741 373.62000000000114 1069.97 373.62000000000114 C 1136.796454729526 373.62000000000114 1190.97 427.7935452704748 1190.97 494.6200000000003 Z" stroke-opacity="0.8" stroke-linecap="round" stroke-linejoin="round" stroke-miterlimit="10" stroke-width="2.5"/><path fill="none" stroke="rgb(21,101,192)" paint-order="fill stroke markers" d=" M 162.4699999999998 373.62000000000114 L 58.17595996590967 555.9694353141706" stroke-opacity="0.8" stroke-linecap="round" stroke-linejoin="round" stroke-miterlimit="10" stroke-width="2.5"/><path fill="none" stroke="rgb(21,101,192)" paint-order="fill stroke markers" d=" M 58.17595996590967 555.9694353141706 L 268.24222333077375 555.1160057899186" stroke-opacity="0.8" stroke-linecap="round" stroke-linejoin="round" stroke-miterlimit="10" stroke-width="2.5"/><path fill="none" stroke="rgb(21,101,192)" paint-order="fill stroke markers" d=" M 268.24222333077375 555.1160057899186 L 162.4699999999998 373.62000000000114" stroke-opacity="0.8" stroke-linecap="round" stroke-linejoin="round" stroke-miterlimit="10" stroke-width="2.5"/><path fill="none" stroke="rgb(21,101,192)" paint-order="fill stroke markers" d=" M 549.9121833725483 408.44677049161845 L 380.62351441169113 407.86361482345484" stroke-opacity="0.8" stroke-linecap="round" stroke-linejoin="round" stroke-miterlimit="10" stroke-width="2.5"/><path fill="none" stroke="rgb(21,101,192)" paint-order="fill stroke markers" d=" M 380.62351441169113 407.86361482345484 L 380.0403587435274 577.1522837843108" stroke-opacity="0.8" stroke-linecap="round" stroke-linejoin="round" stroke-miterlimit="10" stroke-width="2.5"/><path fill="none" stroke="rgb(21,101,192)" paint-order="fill stroke markers" d=" M 380.0403587435274 577.1522837843108 L 549.3290277043847 577.7354394524745" stroke-opacity="0.8" stroke-linecap="round" stroke-linejoin="round" stroke-miterlimit="10" stroke-width="2.5"/><path fill="none" stroke="rgb(21,101,192)" paint-order="fill stroke markers" d=" M 549.3290277043847 577.7354394524745 L 549.9121833725483 408.44677049161845" stroke-opacity="0.8" stroke-linecap="round" stroke-linejoin="round" stroke-miterlimit="10" stroke-width="2.5"/><path fill="none" stroke="rgb(21,101,192)" paint-order="fill stroke markers" d=" M 888.4699999999999 494.6200000000003 L 805.7335596880373 379.829320935889" stroke-opacity="0.8" stroke-linecap="round" stroke-linejoin="round" stroke-miterlimit="10" stroke-width="2.5"/><path fill="none" stroke="rgb(21,101,192)" paint-order="fill stroke markers" d=" M 805.7335596880373 379.829320935889 L 670.9941702436829 423.0440810029945" stroke-opacity="0.8" stroke-linecap="round" stroke-linejoin="round" stroke-miterlimit="10" stroke-width="2.5"/><path fill="none" stroke="rgb(21,101,192)" paint-order="fill stroke markers" d=" M 670.9941702436829 423.0440810029945 L 670.4570882556256 564.5429506042489" stroke-opacity="0.8" stroke-linecap="round" stroke-linejoin="round" stroke-miterlimit="10" stroke-width="2.5"/><path fill="none" stroke="rgb(21,101,192)" paint-order="fill stroke markers" d=" M 670.4570882556256 564.5429506042489 L 804.8645427766153 608.7793013204077" stroke-opacity="0.8" stroke-linecap="round" stroke-linejoin="round" stroke-miterlimit="10" stroke-width="2.5"/><path fill="none" stroke="rgb(21,101,192)" paint-order="fill stroke markers" d=" M 804.8645427766153 608.7793013204077 L 888.4699999999999 494.6200000000003" stroke-opacity="0.8" stroke-linecap="round" stroke-linejoin="round" stroke-miterlimit="10" stroke-width="2.5"/><path fill="none" stroke="rgb(21,101,192)" paint-order="fill stroke markers" d=" M 1131.5262467673235 598.7921099139318 L 1190.97 494.6200000000003" stroke-opacity="0.8" stroke-linecap="round" stroke-linejoin="round" stroke-miterlimit="10" stroke-width="2.5"/><path fill="none" stroke="rgb(21,101,192)" paint-order="fill stroke markers" d=" M 1190.97 494.6200000000003 L 1130.4761830650482 391.0541446472438" stroke-opacity="0.8" stroke-linecap="round" stroke-linejoin="round" stroke-miterlimit="10" stroke-width="2.5"/><path fill="none" stroke="rgb(21,101,192)" paint-order="fill stroke markers" d=" M 1130.4761830650482 391.0541446472438 L 1010.5386128974199 391.66039920841865" stroke-opacity="0.8" stroke-linecap="round" stroke-linejoin="round" stroke-miterlimit="10" stroke-width="2.5"/><path fill="none" stroke="rgb(21,101,192)" paint-order="fill stroke markers" d=" M 1010.5386128974199 391.66039920841865 L 951.0948596647434 495.8325091223501" stroke-opacity="0.8" stroke-linecap="round" stroke-linejoin="round" stroke-miterlimit="10" stroke-width="2.5"/><path fill="none" stroke="rgb(21,101,192)" paint-order="fill stroke markers" d=" M 951.0948596647434 495.8325091223501 L 1011.5886765996951 599.3983644751066" stroke-opacity="0.8" stroke-linecap="round" stroke-linejoin="round" stroke-miterlimit="10" stroke-width="2.5"/><path fill="none" stroke="rgb(21,101,192)" paint-order="fill stroke markers" d=" M 1011.5886765996951 599.3983644751066 L 1131.5262467673235 598.7921099139318" stroke-opacity="0.8" stroke-linecap="round" stroke-linejoin="round" stroke-miterlimit="10" stroke-width="2.5"/><path fill="rgb(21,101,192)" stroke="none" paint-order="stroke fill markers" d=" M 167.4699999999998 494.6200000000003 C 167.4699999999998 497.38142374915424 165.23142374915378 499.6200000000003 162.4699999999998 499.6200000000003 C 159.70857625084582 499.6200000000003 157.4699999999998 497.38142374915424 157.4699999999998 494.6200000000003 C 157.4699999999998 491.85857625084634 159.70857625084582 489.6200000000003 162.4699999999998 489.6200000000003 C 165.23142374915378 489.6200000000003 167.4699999999998 491.85857625084634 167.4699999999998 494.6200000000003 Z" fill-opacity="1"/><path fill="none" stroke="rgb(0,0,0)" paint-order="fill stroke markers" d=" M 167.4699999999998 494.6200000000003 C 167.4699999999998 497.38142374915424 165.23142374915378 499.6200000000003 162.4699999999998 499.6200000000003 C 159.70857625084582 499.6200000000003 157.4699999999998 497.38142374915424 157.4699999999998 494.6200000000003 C 157.4699999999998 491.85857625084634 159.70857625084582 489.6200000000003 162.4699999999998 489.6200000000003 C 165.23142374915378 489.6200000000003 167.4699999999998 491.85857625084634 167.4699999999998 494.6200000000003 Z" stroke-opacity="1" stroke-linecap="round" stroke-linejoin="round" stroke-miterlimit="10"/><text fill="rgb(21,101,192)" stroke="none" font-family="geogebra-sans-serif, sans-serif" font-size="16px" font-style="normal" font-weight="normal" text-decoration="normal" x="166" y="485" text-anchor="start" dominant-baseline="alphabetic" fill-opacity="1">A</text><text fill="none" stroke="rgb(255,255,255)" font-family="geogebra-sans-serif, sans-serif" font-size="16px" font-style="normal" font-weight="normal" text-decoration="normal" x="166" y="485" text-anchor="start" dominant-baseline="alphabetic" stroke-opacity="1" stroke-linejoin="bevel" stroke-miterlimit="10" stroke-width="3">A</text><text fill="rgb(21,101,192)" stroke="none" font-family="geogebra-sans-serif, sans-serif" font-size="16px" font-style="normal" font-weight="normal" text-decoration="normal" x="166" y="485" text-anchor="start" dominant-baseline="alphabetic" fill-opacity="1">A</text><path fill="rgb(21,101,192)" stroke="none" paint-order="stroke fill markers" d=" M 288.46999999999986 494.6200000000003 C 288.46999999999986 497.38142374915424 286.2314237491538 499.6200000000003 283.46999999999986 499.6200000000003 C 280.7085762508459 499.6200000000003 278.46999999999986 497.38142374915424 278.46999999999986 494.6200000000003 C 278.46999999999986 491.85857625084634 280.7085762508459 489.6200000000003 283.46999999999986 489.6200000000003 C 286.2314237491538 489.6200000000003 288.46999999999986 491.85857625084634 288.46999999999986 494.6200000000003 Z" fill-opacity="1"/><path fill="none" stroke="rgb(0,0,0)" paint-order="fill stroke markers" d=" M 288.46999999999986 494.6200000000003 C 288.46999999999986 497.38142374915424 286.2314237491538 499.6200000000003 283.46999999999986 499.6200000000003 C 280.7085762508459 499.6200000000003 278.46999999999986 497.38142374915424 278.46999999999986 494.6200000000003 C 278.46999999999986 491.85857625084634 280.7085762508459 489.6200000000003 283.46999999999986 489.6200000000003 C 286.2314237491538 489.6200000000003 288.46999999999986 491.85857625084634 288.46999999999986 494.6200000000003 Z" stroke-opacity="1" stroke-linecap="round" stroke-linejoin="round" stroke-miterlimit="10"/><text fill="rgb(21,101,192)" stroke="none" font-family="geogebra-sans-serif, sans-serif" font-size="16px" font-style="normal" font-weight="normal" text-decoration="normal" x="287" y="485" text-anchor="start" dominant-baseline="alphabetic" fill-opacity="1">B</text><text fill="none" stroke="rgb(255,255,255)" font-family="geogebra-sans-serif, sans-serif" font-size="16px" font-style="normal" font-weight="normal" text-decoration="normal" x="287" y="485" text-anchor="start" dominant-baseline="alphabetic" stroke-opacity="1" stroke-linejoin="bevel" stroke-miterlimit="10" stroke-width="3">B</text><text fill="rgb(21,101,192)" stroke="none" font-family="geogebra-sans-serif, sans-serif" font-size="16px" font-style="normal" font-weight="normal" text-decoration="normal" x="287" y="485" text-anchor="start" dominant-baseline="alphabetic" fill-opacity="1">B</text><path fill="rgb(21,101,192)" stroke="none" paint-order="stroke fill markers" d=" M 167.4699999999998 373.62000000000114 C 167.4699999999998 376.3814237491551 165.23142374915378 378.62000000000114 162.4699999999998 378.62000000000114 C 159.70857625084582 378.62000000000114 157.4699999999998 376.3814237491551 157.4699999999998 373.62000000000114 C 157.4699999999998 370.8585762508472 159.70857625084582 368.62000000000114 162.4699999999998 368.62000000000114 C 165.23142374915378 368.62000000000114 167.4699999999998 370.8585762508472 167.4699999999998 373.62000000000114 Z" fill-opacity="1"/><path fill="none" stroke="rgb(0,0,0)" paint-order="fill stroke markers" d=" M 167.4699999999998 373.62000000000114 C 167.4699999999998 376.3814237491551 165.23142374915378 378.62000000000114 162.4699999999998 378.62000000000114 C 159.70857625084582 378.62000000000114 157.4699999999998 376.3814237491551 157.4699999999998 373.62000000000114 C 157.4699999999998 370.8585762508472 159.70857625084582 368.62000000000114 162.4699999999998 368.62000000000114 C 165.23142374915378 368.62000000000114 167.4699999999998 370.8585762508472 167.4699999999998 373.62000000000114 Z" stroke-opacity="1" stroke-linecap="round" stroke-linejoin="round" stroke-miterlimit="10"/><text fill="rgb(21,101,192)" stroke="none" font-family="geogebra-sans-serif, sans-serif" font-size="16px" font-style="normal" font-weight="normal" text-decoration="normal" x="166" y="364" text-anchor="start" dominant-baseline="alphabetic" fill-opacity="1">C</text><text fill="none" stroke="rgb(255,255,255)" font-family="geogebra-sans-serif, sans-serif" font-size="16px" font-style="normal" font-weight="normal" text-decoration="normal" x="166" y="364" text-anchor="start" dominant-baseline="alphabetic" stroke-opacity="1" stroke-linejoin="bevel" stroke-miterlimit="10" stroke-width="3">C</text><text fill="rgb(21,101,192)" stroke="none" font-family="geogebra-sans-serif, sans-serif" font-size="16px" font-style="normal" font-weight="normal" text-decoration="normal" x="166" y="364" text-anchor="start" dominant-baseline="alphabetic" fill-opacity="1">C</text><path fill="rgb(21,101,192)" stroke="none" paint-order="stroke fill markers" d=" M 63.17595996590967 555.9694353141706 C 63.17595996590967 558.7308590633246 60.93738371506363 560.9694353141706 58.17595996590967 560.9694353141706 C 55.4145362167557 560.9694353141706 53.17595996590967 558.7308590633246 53.17595996590967 555.9694353141706 C 53.17595996590967 553.2080115650166 55.4145362167557 550.9694353141706 58.17595996590967 550.9694353141706 C 60.93738371506363 550.9694353141706 63.17595996590967 553.2080115650166 63.17595996590967 555.9694353141706 Z" fill-opacity="1"/><path fill="none" stroke="rgb(0,0,0)" paint-order="fill stroke markers" d=" M 63.17595996590967 555.9694353141706 C 63.17595996590967 558.7308590633246 60.93738371506363 560.9694353141706 58.17595996590967 560.9694353141706 C 55.4145362167557 560.9694353141706 53.17595996590967 558.7308590633246 53.17595996590967 555.9694353141706 C 53.17595996590967 553.2080115650166 55.4145362167557 550.9694353141706 58.17595996590967 550.9694353141706 C 60.93738371506363 550.9694353141706 63.17595996590967 553.2080115650166 63.17595996590967 555.9694353141706 Z" stroke-opacity="1" stroke-linecap="round" stroke-linejoin="round" stroke-miterlimit="10"/><text fill="rgb(21,101,192)" stroke="none" font-family="geogebra-sans-serif, sans-serif" font-size="16px" font-style="normal" font-weight="normal" text-decoration="normal" x="62" y="546" text-anchor="start" dominant-baseline="alphabetic" fill-opacity="1">D</text><text fill="none" stroke="rgb(255,255,255)" font-family="geogebra-sans-serif, sans-serif" font-size="16px" font-style="normal" font-weight="normal" text-decoration="normal" x="62" y="546" text-anchor="start" dominant-baseline="alphabetic" stroke-opacity="1" stroke-linejoin="bevel" stroke-miterlimit="10" stroke-width="3">D</text><text fill="rgb(21,101,192)" stroke="none" font-family="geogebra-sans-serif, sans-serif" font-size="16px" font-style="normal" font-weight="normal" text-decoration="normal" x="62" y="546" text-anchor="start" dominant-baseline="alphabetic" fill-opacity="1">D</text><path fill="rgb(97,97,97)" stroke="none" paint-order="stroke fill markers" d=" M 273.24222333077375 555.1160057899186 C 273.24222333077375 557.8774295390726 271.0036470799277 560.1160057899186 268.24222333077375 560.1160057899186 C 265.4807995816198 560.1160057899186 263.24222333077375 557.8774295390726 263.24222333077375 555.1160057899186 C 263.24222333077375 552.3545820407646 265.4807995816198 550.1160057899186 268.24222333077375 550.1160057899186 C 271.0036470799277 550.1160057899186 273.24222333077375 552.3545820407646 273.24222333077375 555.1160057899186 Z" fill-opacity="1"/><path fill="none" stroke="rgb(0,0,0)" paint-order="fill stroke markers" d=" M 273.24222333077375 555.1160057899186 C 273.24222333077375 557.8774295390726 271.0036470799277 560.1160057899186 268.24222333077375 560.1160057899186 C 265.4807995816198 560.1160057899186 263.24222333077375 557.8774295390726 263.24222333077375 555.1160057899186 C 263.24222333077375 552.3545820407646 265.4807995816198 550.1160057899186 268.24222333077375 550.1160057899186 C 271.0036470799277 550.1160057899186 273.24222333077375 552.3545820407646 273.24222333077375 555.1160057899186 Z" stroke-opacity="1" stroke-linecap="round" stroke-linejoin="round" stroke-miterlimit="10"/><text fill="rgb(97,97,97)" stroke="none" font-family="geogebra-sans-serif, sans-serif" font-size="16px" font-style="normal" font-weight="normal" text-decoration="normal" x="272" y="545" text-anchor="start" dominant-baseline="alphabetic" fill-opacity="1">E</text><text fill="none" stroke="rgb(255,255,255)" font-family="geogebra-sans-serif, sans-serif" font-size="16px" font-style="normal" font-weight="normal" text-decoration="normal" x="272" y="545" text-anchor="start" dominant-baseline="alphabetic" stroke-opacity="1" stroke-linejoin="bevel" stroke-miterlimit="10" stroke-width="3">E</text><text fill="rgb(97,97,97)" stroke="none" font-family="geogebra-sans-serif, sans-serif" font-size="16px" font-style="normal" font-weight="normal" text-decoration="normal" x="272" y="545" text-anchor="start" dominant-baseline="alphabetic" fill-opacity="1">E</text><path fill="rgb(21,101,192)" stroke="none" paint-order="stroke fill markers" d=" M 469.96999999999986 494.6200000000003 C 469.96999999999986 497.38142374915424 467.7314237491538 499.6200000000003 464.96999999999986 499.6200000000003 C 462.2085762508459 499.6200000000003 459.96999999999986 497.38142374915424 459.96999999999986 494.6200000000003 C 459.96999999999986 491.85857625084634 462.2085762508459 489.6200000000003 464.96999999999986 489.6200000000003 C 467.7314237491538 489.6200000000003 469.96999999999986 491.85857625084634 469.96999999999986 494.6200000000003 Z" fill-opacity="1"/><path fill="none" stroke="rgb(0,0,0)" paint-order="fill stroke markers" d=" M 469.96999999999986 494.6200000000003 C 469.96999999999986 497.38142374915424 467.7314237491538 499.6200000000003 464.96999999999986 499.6200000000003 C 462.2085762508459 499.6200000000003 459.96999999999986 497.38142374915424 459.96999999999986 494.6200000000003 C 459.96999999999986 491.85857625084634 462.2085762508459 489.6200000000003 464.96999999999986 489.6200000000003 C 467.7314237491538 489.6200000000003 469.96999999999986 491.85857625084634 469.96999999999986 494.6200000000003 Z" stroke-opacity="1" stroke-linecap="round" stroke-linejoin="round" stroke-miterlimit="10"/><text fill="rgb(21,101,192)" stroke="none" font-family="geogebra-sans-serif, sans-serif" font-size="16px" font-style="normal" font-weight="normal" text-decoration="normal" x="469" y="485" text-anchor="start" dominant-baseline="alphabetic" fill-opacity="1">F</text><text fill="none" stroke="rgb(255,255,255)" font-family="geogebra-sans-serif, sans-serif" font-size="16px" font-style="normal" font-weight="normal" text-decoration="normal" x="469" y="485" text-anchor="start" dominant-baseline="alphabetic" stroke-opacity="1" stroke-linejoin="bevel" stroke-miterlimit="10" stroke-width="3">F</text><text fill="rgb(21,101,192)" stroke="none" font-family="geogebra-sans-serif, sans-serif" font-size="16px" font-style="normal" font-weight="normal" text-decoration="normal" x="469" y="485" text-anchor="start" dominant-baseline="alphabetic" fill-opacity="1">F</text><path fill="rgb(21,101,192)" stroke="none" paint-order="stroke fill markers" d=" M 590.9699999999999 494.6200000000003 C 590.9699999999999 497.38142374915424 588.7314237491539 499.6200000000003 585.9699999999999 499.6200000000003 C 583.2085762508459 499.6200000000003 580.9699999999999 497.38142374915424 580.9699999999999 494.6200000000003 C 580.9699999999999 491.85857625084634 583.2085762508459 489.6200000000003 585.9699999999999 489.6200000000003 C 588.7314237491539 489.6200000000003 590.9699999999999 491.85857625084634 590.9699999999999 494.6200000000003 Z" fill-opacity="1"/><path fill="none" stroke="rgb(0,0,0)" paint-order="fill stroke markers" d=" M 590.9699999999999 494.6200000000003 C 590.9699999999999 497.38142374915424 588.7314237491539 499.6200000000003 585.9699999999999 499.6200000000003 C 583.2085762508459 499.6200000000003 580.9699999999999 497.38142374915424 580.9699999999999 494.6200000000003 C 580.9699999999999 491.85857625084634 583.2085762508459 489.6200000000003 585.9699999999999 489.6200000000003 C 588.7314237491539 489.6200000000003 590.9699999999999 491.85857625084634 590.9699999999999 494.6200000000003 Z" stroke-opacity="1" stroke-linecap="round" stroke-linejoin="round" stroke-miterlimit="10"/><text fill="rgb(21,101,192)" stroke="none" font-family="geogebra-sans-serif, sans-serif" font-size="16px" font-style="normal" font-weight="normal" text-decoration="normal" x="590" y="485" text-anchor="start" dominant-baseline="alphabetic" fill-opacity="1">G</text><text fill="none" stroke="rgb(255,255,255)" font-family="geogebra-sans-serif, sans-serif" font-size="16px" font-style="normal" font-weight="normal" text-decoration="normal" x="590" y="485" text-anchor="start" dominant-baseline="alphabetic" stroke-opacity="1" stroke-linejoin="bevel" stroke-miterlimit="10" stroke-width="3">G</text><text fill="rgb(21,101,192)" stroke="none" font-family="geogebra-sans-serif, sans-serif" font-size="16px" font-style="normal" font-weight="normal" text-decoration="normal" x="590" y="485" text-anchor="start" dominant-baseline="alphabetic" fill-opacity="1">G</text><path fill="rgb(21,101,192)" stroke="none" paint-order="stroke fill markers" d=" M 554.9121833725483 408.44677049161845 C 554.9121833725483 411.2081942407724 552.6736071217023 413.44677049161845 549.9121833725483 413.44677049161845 C 547.1507596233943 413.44677049161845 544.9121833725483 411.2081942407724 544.9121833725483 408.44677049161845 C 544.9121833725483 405.6853467424645 547.1507596233943 403.44677049161845 549.9121833725483 403.44677049161845 C 552.6736071217023 403.44677049161845 554.9121833725483 405.6853467424645 554.9121833725483 408.44677049161845 Z" fill-opacity="1"/><path fill="none" stroke="rgb(0,0,0)" paint-order="fill stroke markers" d=" M 554.9121833725483 408.44677049161845 C 554.9121833725483 411.2081942407724 552.6736071217023 413.44677049161845 549.9121833725483 413.44677049161845 C 547.1507596233943 413.44677049161845 544.9121833725483 411.2081942407724 544.9121833725483 408.44677049161845 C 544.9121833725483 405.6853467424645 547.1507596233943 403.44677049161845 549.9121833725483 403.44677049161845 C 552.6736071217023 403.44677049161845 554.9121833725483 405.6853467424645 554.9121833725483 408.44677049161845 Z" stroke-opacity="1" stroke-linecap="round" stroke-linejoin="round" stroke-miterlimit="10"/><text fill="rgb(21,101,192)" stroke="none" font-family="geogebra-sans-serif, sans-serif" font-size="16px" font-style="normal" font-weight="normal" text-decoration="normal" x="554" y="398" text-anchor="start" dominant-baseline="alphabetic" fill-opacity="1">H</text><text fill="none" stroke="rgb(255,255,255)" font-family="geogebra-sans-serif, sans-serif" font-size="16px" font-style="normal" font-weight="normal" text-decoration="normal" x="554" y="398" text-anchor="start" dominant-baseline="alphabetic" stroke-opacity="1" stroke-linejoin="bevel" stroke-miterlimit="10" stroke-width="3">H</text><text fill="rgb(21,101,192)" stroke="none" font-family="geogebra-sans-serif, sans-serif" font-size="16px" font-style="normal" font-weight="normal" text-decoration="normal" x="554" y="398" text-anchor="start" dominant-baseline="alphabetic" fill-opacity="1">H</text><path fill="rgb(21,101,192)" stroke="none" paint-order="stroke fill markers" d=" M 385.62351441169113 407.86361482345484 C 385.62351441169113 410.6250385726088 383.3849381608451 412.86361482345484 380.62351441169113 412.86361482345484 C 377.8620906625372 412.86361482345484 375.62351441169113 410.6250385726088 375.62351441169113 407.86361482345484 C 375.62351441169113 405.1021910743009 377.8620906625372 402.86361482345484 380.62351441169113 402.86361482345484 C 383.3849381608451 402.86361482345484 385.62351441169113 405.1021910743009 385.62351441169113 407.86361482345484 Z" fill-opacity="1"/><path fill="none" stroke="rgb(0,0,0)" paint-order="fill stroke markers" d=" M 385.62351441169113 407.86361482345484 C 385.62351441169113 410.6250385726088 383.3849381608451 412.86361482345484 380.62351441169113 412.86361482345484 C 377.8620906625372 412.86361482345484 375.62351441169113 410.6250385726088 375.62351441169113 407.86361482345484 C 375.62351441169113 405.1021910743009 377.8620906625372 402.86361482345484 380.62351441169113 402.86361482345484 C 383.3849381608451 402.86361482345484 385.62351441169113 405.1021910743009 385.62351441169113 407.86361482345484 Z" stroke-opacity="1" stroke-linecap="round" stroke-linejoin="round" stroke-miterlimit="10"/><text fill="rgb(21,101,192)" stroke="none" font-family="geogebra-sans-serif, sans-serif" font-size="16px" font-style="normal" font-weight="normal" text-decoration="normal" x="385" y="398" text-anchor="start" dominant-baseline="alphabetic" fill-opacity="1">I</text><text fill="none" stroke="rgb(255,255,255)" font-family="geogebra-sans-serif, sans-serif" font-size="16px" font-style="normal" font-weight="normal" text-decoration="normal" x="385" y="398" text-anchor="start" dominant-baseline="alphabetic" stroke-opacity="1" stroke-linejoin="bevel" stroke-miterlimit="10" stroke-width="3">I</text><text fill="rgb(21,101,192)" stroke="none" font-family="geogebra-sans-serif, sans-serif" font-size="16px" font-style="normal" font-weight="normal" text-decoration="normal" x="385" y="398" text-anchor="start" dominant-baseline="alphabetic" fill-opacity="1">I</text><path fill="rgb(97,97,97)" stroke="none" paint-order="stroke fill markers" d=" M 385.0403587435274 577.1522837843108 C 385.0403587435274 579.9137075334648 382.80178249268135 582.1522837843108 380.0403587435274 582.1522837843108 C 377.27893499437346 582.1522837843108 375.0403587435274 579.9137075334648 375.0403587435274 577.1522837843108 C 375.0403587435274 574.3908600351568 377.27893499437346 572.1522837843108 380.0403587435274 572.1522837843108 C 382.80178249268135 572.1522837843108 385.0403587435274 574.3908600351568 385.0403587435274 577.1522837843108 Z" fill-opacity="1"/><path fill="none" stroke="rgb(0,0,0)" paint-order="fill stroke markers" d=" M 385.0403587435274 577.1522837843108 C 385.0403587435274 579.9137075334648 382.80178249268135 582.1522837843108 380.0403587435274 582.1522837843108 C 377.27893499437346 582.1522837843108 375.0403587435274 579.9137075334648 375.0403587435274 577.1522837843108 C 375.0403587435274 574.3908600351568 377.27893499437346 572.1522837843108 380.0403587435274 572.1522837843108 C 382.80178249268135 572.1522837843108 385.0403587435274 574.3908600351568 385.0403587435274 577.1522837843108 Z" stroke-opacity="1" stroke-linecap="round" stroke-linejoin="round" stroke-miterlimit="10"/><text fill="rgb(97,97,97)" stroke="none" font-family="geogebra-sans-serif, sans-serif" font-size="16px" font-style="normal" font-weight="normal" text-decoration="normal" x="384" y="567" text-anchor="start" dominant-baseline="alphabetic" fill-opacity="1">J</text><text fill="none" stroke="rgb(255,255,255)" font-family="geogebra-sans-serif, sans-serif" font-size="16px" font-style="normal" font-weight="normal" text-decoration="normal" x="384" y="567" text-anchor="start" dominant-baseline="alphabetic" stroke-opacity="1" stroke-linejoin="bevel" stroke-miterlimit="10" stroke-width="3">J</text><text fill="rgb(97,97,97)" stroke="none" font-family="geogebra-sans-serif, sans-serif" font-size="16px" font-style="normal" font-weight="normal" text-decoration="normal" x="384" y="567" text-anchor="start" dominant-baseline="alphabetic" fill-opacity="1">J</text><path fill="rgb(97,97,97)" stroke="none" paint-order="stroke fill markers" d=" M 554.3290277043847 577.7354394524745 C 554.3290277043847 580.4968632016285 552.0904514535387 582.7354394524745 549.3290277043847 582.7354394524745 C 546.5676039552307 582.7354394524745 544.3290277043847 580.4968632016285 544.3290277043847 577.7354394524745 C 544.3290277043847 574.9740157033204 546.5676039552307 572.7354394524745 549.3290277043847 572.7354394524745 C 552.0904514535387 572.7354394524745 554.3290277043847 574.9740157033204 554.3290277043847 577.7354394524745 Z" fill-opacity="1"/><path fill="none" stroke="rgb(0,0,0)" paint-order="fill stroke markers" d=" M 554.3290277043847 577.7354394524745 C 554.3290277043847 580.4968632016285 552.0904514535387 582.7354394524745 549.3290277043847 582.7354394524745 C 546.5676039552307 582.7354394524745 544.3290277043847 580.4968632016285 544.3290277043847 577.7354394524745 C 544.3290277043847 574.9740157033204 546.5676039552307 572.7354394524745 549.3290277043847 572.7354394524745 C 552.0904514535387 572.7354394524745 554.3290277043847 574.9740157033204 554.3290277043847 577.7354394524745 Z" stroke-opacity="1" stroke-linecap="round" stroke-linejoin="round" stroke-miterlimit="10"/><text fill="rgb(97,97,97)" stroke="none" font-family="geogebra-sans-serif, sans-serif" font-size="16px" font-style="normal" font-weight="normal" text-decoration="normal" x="553" y="568" text-anchor="start" dominant-baseline="alphabetic" fill-opacity="1">K</text><text fill="none" stroke="rgb(255,255,255)" font-family="geogebra-sans-serif, sans-serif" font-size="16px" font-style="normal" font-weight="normal" text-decoration="normal" x="553" y="568" text-anchor="start" dominant-baseline="alphabetic" stroke-opacity="1" stroke-linejoin="bevel" stroke-miterlimit="10" stroke-width="3">K</text><text fill="rgb(97,97,97)" stroke="none" font-family="geogebra-sans-serif, sans-serif" font-size="16px" font-style="normal" font-weight="normal" text-decoration="normal" x="553" y="568" text-anchor="start" dominant-baseline="alphabetic" fill-opacity="1">K</text><path fill="rgb(21,101,192)" stroke="none" paint-order="stroke fill markers" d=" M 772.4699999999999 494.6200000000003 C 772.4699999999999 497.38142374915424 770.2314237491539 499.6200000000003 767.4699999999999 499.6200000000003 C 764.7085762508459 499.6200000000003 762.4699999999999 497.38142374915424 762.4699999999999 494.6200000000003 C 762.4699999999999 491.85857625084634 764.7085762508459 489.6200000000003 767.4699999999999 489.6200000000003 C 770.2314237491539 489.6200000000003 772.4699999999999 491.85857625084634 772.4699999999999 494.6200000000003 Z" fill-opacity="1"/><path fill="none" stroke="rgb(0,0,0)" paint-order="fill stroke markers" d=" M 772.4699999999999 494.6200000000003 C 772.4699999999999 497.38142374915424 770.2314237491539 499.6200000000003 767.4699999999999 499.6200000000003 C 764.7085762508459 499.6200000000003 762.4699999999999 497.38142374915424 762.4699999999999 494.6200000000003 C 762.4699999999999 491.85857625084634 764.7085762508459 489.6200000000003 767.4699999999999 489.6200000000003 C 770.2314237491539 489.6200000000003 772.4699999999999 491.85857625084634 772.4699999999999 494.6200000000003 Z" stroke-opacity="1" stroke-linecap="round" stroke-linejoin="round" stroke-miterlimit="10"/><text fill="rgb(21,101,192)" stroke="none" font-family="geogebra-sans-serif, sans-serif" font-size="16px" font-style="normal" font-weight="normal" text-decoration="normal" x="771" y="485" text-anchor="start" dominant-baseline="alphabetic" fill-opacity="1">L</text><text fill="none" stroke="rgb(255,255,255)" font-family="geogebra-sans-serif, sans-serif" font-size="16px" font-style="normal" font-weight="normal" text-decoration="normal" x="771" y="485" text-anchor="start" dominant-baseline="alphabetic" stroke-opacity="1" stroke-linejoin="bevel" stroke-miterlimit="10" stroke-width="3">L</text><text fill="rgb(21,101,192)" stroke="none" font-family="geogebra-sans-serif, sans-serif" font-size="16px" font-style="normal" font-weight="normal" text-decoration="normal" x="771" y="485" text-anchor="start" dominant-baseline="alphabetic" fill-opacity="1">L</text><path fill="rgb(21,101,192)" stroke="none" paint-order="stroke fill markers" d=" M 893.4699999999999 494.6200000000003 C 893.4699999999999 497.38142374915424 891.2314237491539 499.6200000000003 888.4699999999999 499.6200000000003 C 885.7085762508459 499.6200000000003 883.4699999999999 497.38142374915424 883.4699999999999 494.6200000000003 C 883.4699999999999 491.85857625084634 885.7085762508459 489.6200000000003 888.4699999999999 489.6200000000003 C 891.2314237491539 489.6200000000003 893.4699999999999 491.85857625084634 893.4699999999999 494.6200000000003 Z" fill-opacity="1"/><path fill="none" stroke="rgb(0,0,0)" paint-order="fill stroke markers" d=" M 893.4699999999999 494.6200000000003 C 893.4699999999999 497.38142374915424 891.2314237491539 499.6200000000003 888.4699999999999 499.6200000000003 C 885.7085762508459 499.6200000000003 883.4699999999999 497.38142374915424 883.4699999999999 494.6200000000003 C 883.4699999999999 491.85857625084634 885.7085762508459 489.6200000000003 888.4699999999999 489.6200000000003 C 891.2314237491539 489.6200000000003 893.4699999999999 491.85857625084634 893.4699999999999 494.6200000000003 Z" stroke-opacity="1" stroke-linecap="round" stroke-linejoin="round" stroke-miterlimit="10"/><text fill="rgb(21,101,192)" stroke="none" font-family="geogebra-sans-serif, sans-serif" font-size="16px" font-style="normal" font-weight="normal" text-decoration="normal" x="892" y="485" text-anchor="start" dominant-baseline="alphabetic" fill-opacity="1">M</text><text fill="none" stroke="rgb(255,255,255)" font-family="geogebra-sans-serif, sans-serif" font-size="16px" font-style="normal" font-weight="normal" text-decoration="normal" x="892" y="485" text-anchor="start" dominant-baseline="alphabetic" stroke-opacity="1" stroke-linejoin="bevel" stroke-miterlimit="10" stroke-width="3">M</text><text fill="rgb(21,101,192)" stroke="none" font-family="geogebra-sans-serif, sans-serif" font-size="16px" font-style="normal" font-weight="normal" text-decoration="normal" x="892" y="485" text-anchor="start" dominant-baseline="alphabetic" fill-opacity="1">M</text><path fill="rgb(21,101,192)" stroke="none" paint-order="stroke fill markers" d=" M 893.4699999999999 494.6200000000003 C 893.4699999999999 497.38142374915424 891.2314237491539 499.6200000000003 888.4699999999999 499.6200000000003 C 885.7085762508459 499.6200000000003 883.4699999999999 497.38142374915424 883.4699999999999 494.6200000000003 C 883.4699999999999 491.85857625084634 885.7085762508459 489.6200000000003 888.4699999999999 489.6200000000003 C 891.2314237491539 489.6200000000003 893.4699999999999 491.85857625084634 893.4699999999999 494.6200000000003 Z" fill-opacity="1"/><path fill="none" stroke="rgb(0,0,0)" paint-order="fill stroke markers" d=" M 893.4699999999999 494.6200000000003 C 893.4699999999999 497.38142374915424 891.2314237491539 499.6200000000003 888.4699999999999 499.6200000000003 C 885.7085762508459 499.6200000000003 883.4699999999999 497.38142374915424 883.4699999999999 494.6200000000003 C 883.4699999999999 491.85857625084634 885.7085762508459 489.6200000000003 888.4699999999999 489.6200000000003 C 891.2314237491539 489.6200000000003 893.4699999999999 491.85857625084634 893.4699999999999 494.6200000000003 Z" stroke-opacity="1" stroke-linecap="round" stroke-linejoin="round" stroke-miterlimit="10"/><text fill="rgb(21,101,192)" stroke="none" font-family="geogebra-sans-serif, sans-serif" font-size="16px" font-style="normal" font-weight="normal" text-decoration="normal" x="892" y="485" text-anchor="start" dominant-baseline="alphabetic" fill-opacity="1">N</text><text fill="none" stroke="rgb(255,255,255)" font-family="geogebra-sans-serif, sans-serif" font-size="16px" font-style="normal" font-weight="normal" text-decoration="normal" x="892" y="485" text-anchor="start" dominant-baseline="alphabetic" stroke-opacity="1" stroke-linejoin="bevel" stroke-miterlimit="10" stroke-width="3">N</text><text fill="rgb(21,101,192)" stroke="none" font-family="geogebra-sans-serif, sans-serif" font-size="16px" font-style="normal" font-weight="normal" text-decoration="normal" x="892" y="485" text-anchor="start" dominant-baseline="alphabetic" fill-opacity="1">N</text><path fill="rgb(21,101,192)" stroke="none" paint-order="stroke fill markers" d=" M 810.7335596880373 379.829320935889 C 810.7335596880373 382.5907446850429 808.4949834371913 384.829320935889 805.7335596880373 384.829320935889 C 802.9721359388833 384.829320935889 800.7335596880373 382.5907446850429 800.7335596880373 379.829320935889 C 800.7335596880373 377.067897186735 802.9721359388833 374.829320935889 805.7335596880373 374.829320935889 C 808.4949834371913 374.829320935889 810.7335596880373 377.067897186735 810.7335596880373 379.829320935889 Z" fill-opacity="1"/><path fill="none" stroke="rgb(0,0,0)" paint-order="fill stroke markers" d=" M 810.7335596880373 379.829320935889 C 810.7335596880373 382.5907446850429 808.4949834371913 384.829320935889 805.7335596880373 384.829320935889 C 802.9721359388833 384.829320935889 800.7335596880373 382.5907446850429 800.7335596880373 379.829320935889 C 800.7335596880373 377.067897186735 802.9721359388833 374.829320935889 805.7335596880373 374.829320935889 C 808.4949834371913 374.829320935889 810.7335596880373 377.067897186735 810.7335596880373 379.829320935889 Z" stroke-opacity="1" stroke-linecap="round" stroke-linejoin="round" stroke-miterlimit="10"/><text fill="rgb(21,101,192)" stroke="none" font-family="geogebra-sans-serif, sans-serif" font-size="16px" font-style="normal" font-weight="normal" text-decoration="normal" x="810" y="370" text-anchor="start" dominant-baseline="alphabetic" fill-opacity="1">O</text><text fill="none" stroke="rgb(255,255,255)" font-family="geogebra-sans-serif, sans-serif" font-size="16px" font-style="normal" font-weight="normal" text-decoration="normal" x="810" y="370" text-anchor="start" dominant-baseline="alphabetic" stroke-opacity="1" stroke-linejoin="bevel" stroke-miterlimit="10" stroke-width="3">O</text><text fill="rgb(21,101,192)" stroke="none" font-family="geogebra-sans-serif, sans-serif" font-size="16px" font-style="normal" font-weight="normal" text-decoration="normal" x="810" y="370" text-anchor="start" dominant-baseline="alphabetic" fill-opacity="1">O</text><path fill="rgb(97,97,97)" stroke="none" paint-order="stroke fill markers" d=" M 675.9941702436829 423.0440810029945 C 675.9941702436829 425.80550475214847 673.7555939928369 428.0440810029945 670.9941702436829 428.0440810029945 C 668.2327464945289 428.0440810029945 665.9941702436829 425.80550475214847 665.9941702436829 423.0440810029945 C 665.9941702436829 420.28265725384057 668.2327464945289 418.0440810029945 670.9941702436829 418.0440810029945 C 673.7555939928369 418.0440810029945 675.9941702436829 420.28265725384057 675.9941702436829 423.0440810029945 Z" fill-opacity="1"/><path fill="none" stroke="rgb(0,0,0)" paint-order="fill stroke markers" d=" M 675.9941702436829 423.0440810029945 C 675.9941702436829 425.80550475214847 673.7555939928369 428.0440810029945 670.9941702436829 428.0440810029945 C 668.2327464945289 428.0440810029945 665.9941702436829 425.80550475214847 665.9941702436829 423.0440810029945 C 665.9941702436829 420.28265725384057 668.2327464945289 418.0440810029945 670.9941702436829 418.0440810029945 C 673.7555939928369 418.0440810029945 675.9941702436829 420.28265725384057 675.9941702436829 423.0440810029945 Z" stroke-opacity="1" stroke-linecap="round" stroke-linejoin="round" stroke-miterlimit="10"/><text fill="rgb(97,97,97)" stroke="none" font-family="geogebra-sans-serif, sans-serif" font-size="16px" font-style="normal" font-weight="normal" text-decoration="normal" x="675" y="413" text-anchor="start" dominant-baseline="alphabetic" fill-opacity="1">P</text><text fill="none" stroke="rgb(255,255,255)" font-family="geogebra-sans-serif, sans-serif" font-size="16px" font-style="normal" font-weight="normal" text-decoration="normal" x="675" y="413" text-anchor="start" dominant-baseline="alphabetic" stroke-opacity="1" stroke-linejoin="bevel" stroke-miterlimit="10" stroke-width="3">P</text><text fill="rgb(97,97,97)" stroke="none" font-family="geogebra-sans-serif, sans-serif" font-size="16px" font-style="normal" font-weight="normal" text-decoration="normal" x="675" y="413" text-anchor="start" dominant-baseline="alphabetic" fill-opacity="1">P</text><path fill="rgb(97,97,97)" stroke="none" paint-order="stroke fill markers" d=" M 675.4570882556256 564.5429506042489 C 675.4570882556256 567.3043743534029 673.2185120047797 569.5429506042489 670.4570882556256 569.5429506042489 C 667.6956645064716 569.5429506042489 665.4570882556256 567.3043743534029 665.4570882556256 564.5429506042489 C 665.4570882556256 561.7815268550949 667.6956645064716 559.5429506042489 670.4570882556256 559.5429506042489 C 673.2185120047797 559.5429506042489 675.4570882556256 561.7815268550949 675.4570882556256 564.5429506042489 Z" fill-opacity="1"/><path fill="none" stroke="rgb(0,0,0)" paint-order="fill stroke markers" d=" M 675.4570882556256 564.5429506042489 C 675.4570882556256 567.3043743534029 673.2185120047797 569.5429506042489 670.4570882556256 569.5429506042489 C 667.6956645064716 569.5429506042489 665.4570882556256 567.3043743534029 665.4570882556256 564.5429506042489 C 665.4570882556256 561.7815268550949 667.6956645064716 559.5429506042489 670.4570882556256 559.5429506042489 C 673.2185120047797 559.5429506042489 675.4570882556256 561.7815268550949 675.4570882556256 564.5429506042489 Z" stroke-opacity="1" stroke-linecap="round" stroke-linejoin="round" stroke-miterlimit="10"/><text fill="rgb(97,97,97)" stroke="none" font-family="geogebra-sans-serif, sans-serif" font-size="16px" font-style="normal" font-weight="normal" text-decoration="normal" x="674" y="555" text-anchor="start" dominant-baseline="alphabetic" fill-opacity="1">Q</text><text fill="none" stroke="rgb(255,255,255)" font-family="geogebra-sans-serif, sans-serif" font-size="16px" font-style="normal" font-weight="normal" text-decoration="normal" x="674" y="555" text-anchor="start" dominant-baseline="alphabetic" stroke-opacity="1" stroke-linejoin="bevel" stroke-miterlimit="10" stroke-width="3">Q</text><text fill="rgb(97,97,97)" stroke="none" font-family="geogebra-sans-serif, sans-serif" font-size="16px" font-style="normal" font-weight="normal" text-decoration="normal" x="674" y="555" text-anchor="start" dominant-baseline="alphabetic" fill-opacity="1">Q</text><path fill="rgb(97,97,97)" stroke="none" paint-order="stroke fill markers" d=" M 809.8645427766153 608.7793013204077 C 809.8645427766153 611.5407250695617 807.6259665257693 613.7793013204077 804.8645427766153 613.7793013204077 C 802.1031190274613 613.7793013204077 799.8645427766153 611.5407250695617 799.8645427766153 608.7793013204077 C 799.8645427766153 606.0178775712537 802.1031190274613 603.7793013204077 804.8645427766153 603.7793013204077 C 807.6259665257693 603.7793013204077 809.8645427766153 606.0178775712537 809.8645427766153 608.7793013204077 Z" fill-opacity="1"/><path fill="none" stroke="rgb(0,0,0)" paint-order="fill stroke markers" d=" M 809.8645427766153 608.7793013204077 C 809.8645427766153 611.5407250695617 807.6259665257693 613.7793013204077 804.8645427766153 613.7793013204077 C 802.1031190274613 613.7793013204077 799.8645427766153 611.5407250695617 799.8645427766153 608.7793013204077 C 799.8645427766153 606.0178775712537 802.1031190274613 603.7793013204077 804.8645427766153 603.7793013204077 C 807.6259665257693 603.7793013204077 809.8645427766153 606.0178775712537 809.8645427766153 608.7793013204077 Z" stroke-opacity="1" stroke-linecap="round" stroke-linejoin="round" stroke-miterlimit="10"/><text fill="rgb(97,97,97)" stroke="none" font-family="geogebra-sans-serif, sans-serif" font-size="16px" font-style="normal" font-weight="normal" text-decoration="normal" x="809" y="599" text-anchor="start" dominant-baseline="alphabetic" fill-opacity="1">R</text><text fill="none" stroke="rgb(255,255,255)" font-family="geogebra-sans-serif, sans-serif" font-size="16px" font-style="normal" font-weight="normal" text-decoration="normal" x="809" y="599" text-anchor="start" dominant-baseline="alphabetic" stroke-opacity="1" stroke-linejoin="bevel" stroke-miterlimit="10" stroke-width="3">R</text><text fill="rgb(97,97,97)" stroke="none" font-family="geogebra-sans-serif, sans-serif" font-size="16px" font-style="normal" font-weight="normal" text-decoration="normal" x="809" y="599" text-anchor="start" dominant-baseline="alphabetic" fill-opacity="1">R</text><path fill="rgb(21,101,192)" stroke="none" paint-order="stroke fill markers" d=" M 1074.97 494.6200000000003 C 1074.97 497.38142374915424 1072.731423749154 499.6200000000003 1069.97 499.6200000000003 C 1067.2085762508461 499.6200000000003 1064.97 497.38142374915424 1064.97 494.6200000000003 C 1064.97 491.85857625084634 1067.2085762508461 489.6200000000003 1069.97 489.6200000000003 C 1072.731423749154 489.6200000000003 1074.97 491.85857625084634 1074.97 494.6200000000003 Z" fill-opacity="1"/><path fill="none" stroke="rgb(0,0,0)" paint-order="fill stroke markers" d=" M 1074.97 494.6200000000003 C 1074.97 497.38142374915424 1072.731423749154 499.6200000000003 1069.97 499.6200000000003 C 1067.2085762508461 499.6200000000003 1064.97 497.38142374915424 1064.97 494.6200000000003 C 1064.97 491.85857625084634 1067.2085762508461 489.6200000000003 1069.97 489.6200000000003 C 1072.731423749154 489.6200000000003 1074.97 491.85857625084634 1074.97 494.6200000000003 Z" stroke-opacity="1" stroke-linecap="round" stroke-linejoin="round" stroke-miterlimit="10"/><text fill="rgb(21,101,192)" stroke="none" font-family="geogebra-sans-serif, sans-serif" font-size="16px" font-style="normal" font-weight="normal" text-decoration="normal" x="1074" y="485" text-anchor="start" dominant-baseline="alphabetic" fill-opacity="1">S</text><text fill="none" stroke="rgb(255,255,255)" font-family="geogebra-sans-serif, sans-serif" font-size="16px" font-style="normal" font-weight="normal" text-decoration="normal" x="1074" y="485" text-anchor="start" dominant-baseline="alphabetic" stroke-opacity="1" stroke-linejoin="bevel" stroke-miterlimit="10" stroke-width="3">S</text><text fill="rgb(21,101,192)" stroke="none" font-family="geogebra-sans-serif, sans-serif" font-size="16px" font-style="normal" font-weight="normal" text-decoration="normal" x="1074" y="485" text-anchor="start" dominant-baseline="alphabetic" fill-opacity="1">S</text><path fill="rgb(21,101,192)" stroke="none" paint-order="stroke fill markers" d=" M 1195.97 494.6200000000003 C 1195.97 497.38142374915424 1193.731423749154 499.6200000000003 1190.97 499.6200000000003 C 1188.2085762508461 499.6200000000003 1185.97 497.38142374915424 1185.97 494.6200000000003 C 1185.97 491.85857625084634 1188.2085762508461 489.6200000000003 1190.97 489.6200000000003 C 1193.731423749154 489.6200000000003 1195.97 491.85857625084634 1195.97 494.6200000000003 Z" fill-opacity="1"/><path fill="none" stroke="rgb(0,0,0)" paint-order="fill stroke markers" d=" M 1195.97 494.6200000000003 C 1195.97 497.38142374915424 1193.731423749154 499.6200000000003 1190.97 499.6200000000003 C 1188.2085762508461 499.6200000000003 1185.97 497.38142374915424 1185.97 494.6200000000003 C 1185.97 491.85857625084634 1188.2085762508461 489.6200000000003 1190.97 489.6200000000003 C 1193.731423749154 489.6200000000003 1195.97 491.85857625084634 1195.97 494.6200000000003 Z" stroke-opacity="1" stroke-linecap="round" stroke-linejoin="round" stroke-miterlimit="10"/><text fill="rgb(21,101,192)" stroke="none" font-family="geogebra-sans-serif, sans-serif" font-size="16px" font-style="normal" font-weight="normal" text-decoration="normal" x="1195" y="485" text-anchor="start" dominant-baseline="alphabetic" fill-opacity="1">T</text><text fill="none" stroke="rgb(255,255,255)" font-family="geogebra-sans-serif, sans-serif" font-size="16px" font-style="normal" font-weight="normal" text-decoration="normal" x="1195" y="485" text-anchor="start" dominant-baseline="alphabetic" stroke-opacity="1" stroke-linejoin="bevel" stroke-miterlimit="10" stroke-width="3">T</text><text fill="rgb(21,101,192)" stroke="none" font-family="geogebra-sans-serif, sans-serif" font-size="16px" font-style="normal" font-weight="normal" text-decoration="normal" x="1195" y="485" text-anchor="start" dominant-baseline="alphabetic" fill-opacity="1">T</text><path fill="rgb(21,101,192)" stroke="none" paint-order="stroke fill markers" d=" M 1136.5262467673235 598.7921099139318 C 1136.5262467673235 601.5535336630858 1134.2876705164774 603.7921099139318 1131.5262467673235 603.7921099139318 C 1128.7648230181696 603.7921099139318 1126.5262467673235 601.5535336630858 1126.5262467673235 598.7921099139318 C 1126.5262467673235 596.0306861647778 1128.7648230181696 593.7921099139318 1131.5262467673235 593.7921099139318 C 1134.2876705164774 593.7921099139318 1136.5262467673235 596.0306861647778 1136.5262467673235 598.7921099139318 Z" fill-opacity="1"/><path fill="none" stroke="rgb(0,0,0)" paint-order="fill stroke markers" d=" M 1136.5262467673235 598.7921099139318 C 1136.5262467673235 601.5535336630858 1134.2876705164774 603.7921099139318 1131.5262467673235 603.7921099139318 C 1128.7648230181696 603.7921099139318 1126.5262467673235 601.5535336630858 1126.5262467673235 598.7921099139318 C 1126.5262467673235 596.0306861647778 1128.7648230181696 593.7921099139318 1131.5262467673235 593.7921099139318 C 1134.2876705164774 593.7921099139318 1136.5262467673235 596.0306861647778 1136.5262467673235 598.7921099139318 Z" stroke-opacity="1" stroke-linecap="round" stroke-linejoin="round" stroke-miterlimit="10"/><text fill="rgb(21,101,192)" stroke="none" font-family="geogebra-sans-serif, sans-serif" font-size="16px" font-style="normal" font-weight="normal" text-decoration="normal" x="1136" y="589" text-anchor="start" dominant-baseline="alphabetic" fill-opacity="1">U</text><text fill="none" stroke="rgb(255,255,255)" font-family="geogebra-sans-serif, sans-serif" font-size="16px" font-style="normal" font-weight="normal" text-decoration="normal" x="1136" y="589" text-anchor="start" dominant-baseline="alphabetic" stroke-opacity="1" stroke-linejoin="bevel" stroke-miterlimit="10" stroke-width="3">U</text><text fill="rgb(21,101,192)" stroke="none" font-family="geogebra-sans-serif, sans-serif" font-size="16px" font-style="normal" font-weight="normal" text-decoration="normal" x="1136" y="589" text-anchor="start" dominant-baseline="alphabetic" fill-opacity="1">U</text><path fill="rgb(21,101,192)" stroke="none" paint-order="stroke fill markers" d=" M 1195.97 494.6200000000003 C 1195.97 497.38142374915424 1193.731423749154 499.6200000000003 1190.97 499.6200000000003 C 1188.2085762508461 499.6200000000003 1185.97 497.38142374915424 1185.97 494.6200000000003 C 1185.97 491.85857625084634 1188.2085762508461 489.6200000000003 1190.97 489.6200000000003 C 1193.731423749154 489.6200000000003 1195.97 491.85857625084634 1195.97 494.6200000000003 Z" fill-opacity="1"/><path fill="none" stroke="rgb(0,0,0)" paint-order="fill stroke markers" d=" M 1195.97 494.6200000000003 C 1195.97 497.38142374915424 1193.731423749154 499.6200000000003 1190.97 499.6200000000003 C 1188.2085762508461 499.6200000000003 1185.97 497.38142374915424 1185.97 494.6200000000003 C 1185.97 491.85857625084634 1188.2085762508461 489.6200000000003 1190.97 489.6200000000003 C 1193.731423749154 489.6200000000003 1195.97 491.85857625084634 1195.97 494.6200000000003 Z" stroke-opacity="1" stroke-linecap="round" stroke-linejoin="round" stroke-miterlimit="10"/><text fill="rgb(21,101,192)" stroke="none" font-family="geogebra-sans-serif, sans-serif" font-size="16px" font-style="normal" font-weight="normal" text-decoration="normal" x="1195" y="485" text-anchor="start" dominant-baseline="alphabetic" fill-opacity="1">V</text><text fill="none" stroke="rgb(255,255,255)" font-family="geogebra-sans-serif, sans-serif" font-size="16px" font-style="normal" font-weight="normal" text-decoration="normal" x="1195" y="485" text-anchor="start" dominant-baseline="alphabetic" stroke-opacity="1" stroke-linejoin="bevel" stroke-miterlimit="10" stroke-width="3">V</text><text fill="rgb(21,101,192)" stroke="none" font-family="geogebra-sans-serif, sans-serif" font-size="16px" font-style="normal" font-weight="normal" text-decoration="normal" x="1195" y="485" text-anchor="start" dominant-baseline="alphabetic" fill-opacity="1">V</text><path fill="rgb(97,97,97)" stroke="none" paint-order="stroke fill markers" d=" M 1135.4761830650482 391.0541446472438 C 1135.4761830650482 393.81556839639774 1133.237606814202 396.0541446472438 1130.4761830650482 396.0541446472438 C 1127.7147593158943 396.0541446472438 1125.4761830650482 393.81556839639774 1125.4761830650482 391.0541446472438 C 1125.4761830650482 388.29272089808984 1127.7147593158943 386.0541446472438 1130.4761830650482 386.0541446472438 C 1133.237606814202 386.0541446472438 1135.4761830650482 388.29272089808984 1135.4761830650482 391.0541446472438 Z" fill-opacity="1"/><path fill="none" stroke="rgb(0,0,0)" paint-order="fill stroke markers" d=" M 1135.4761830650482 391.0541446472438 C 1135.4761830650482 393.81556839639774 1133.237606814202 396.0541446472438 1130.4761830650482 396.0541446472438 C 1127.7147593158943 396.0541446472438 1125.4761830650482 393.81556839639774 1125.4761830650482 391.0541446472438 C 1125.4761830650482 388.29272089808984 1127.7147593158943 386.0541446472438 1130.4761830650482 386.0541446472438 C 1133.237606814202 386.0541446472438 1135.4761830650482 388.29272089808984 1135.4761830650482 391.0541446472438 Z" stroke-opacity="1" stroke-linecap="round" stroke-linejoin="round" stroke-miterlimit="10"/><text fill="rgb(97,97,97)" stroke="none" font-family="geogebra-sans-serif, sans-serif" font-size="16px" font-style="normal" font-weight="normal" text-decoration="normal" x="1134" y="381" text-anchor="start" dominant-baseline="alphabetic" fill-opacity="1">W</text><text fill="none" stroke="rgb(255,255,255)" font-family="geogebra-sans-serif, sans-serif" font-size="16px" font-style="normal" font-weight="normal" text-decoration="normal" x="1134" y="381" text-anchor="start" dominant-baseline="alphabetic" stroke-opacity="1" stroke-linejoin="bevel" stroke-miterlimit="10" stroke-width="3">W</text><text fill="rgb(97,97,97)" stroke="none" font-family="geogebra-sans-serif, sans-serif" font-size="16px" font-style="normal" font-weight="normal" text-decoration="normal" x="1134" y="381" text-anchor="start" dominant-baseline="alphabetic" fill-opacity="1">W</text><path fill="rgb(97,97,97)" stroke="none" paint-order="stroke fill markers" d=" M 1015.5386128974199 391.66039920841865 C 1015.5386128974199 394.4218229575726 1013.3000366465739 396.66039920841865 1010.5386128974199 396.66039920841865 C 1007.7771891482658 396.66039920841865 1005.5386128974199 394.4218229575726 1005.5386128974199 391.66039920841865 C 1005.5386128974199 388.8989754592647 1007.7771891482658 386.66039920841865 1010.5386128974199 386.66039920841865 C 1013.3000366465739 386.66039920841865 1015.5386128974199 388.8989754592647 1015.5386128974199 391.66039920841865 Z" fill-opacity="1"/><path fill="none" stroke="rgb(0,0,0)" paint-order="fill stroke markers" d=" M 1015.5386128974199 391.66039920841865 C 1015.5386128974199 394.4218229575726 1013.3000366465739 396.66039920841865 1010.5386128974199 396.66039920841865 C 1007.7771891482658 396.66039920841865 1005.5386128974199 394.4218229575726 1005.5386128974199 391.66039920841865 C 1005.5386128974199 388.8989754592647 1007.7771891482658 386.66039920841865 1010.5386128974199 386.66039920841865 C 1013.3000366465739 386.66039920841865 1015.5386128974199 388.8989754592647 1015.5386128974199 391.66039920841865 Z" stroke-opacity="1" stroke-linecap="round" stroke-linejoin="round" stroke-miterlimit="10"/><text fill="rgb(97,97,97)" stroke="none" font-family="geogebra-sans-serif, sans-serif" font-size="16px" font-style="normal" font-weight="normal" text-decoration="normal" x="1015" y="382" text-anchor="start" dominant-baseline="alphabetic" fill-opacity="1">Z</text><text fill="none" stroke="rgb(255,255,255)" font-family="geogebra-sans-serif, sans-serif" font-size="16px" font-style="normal" font-weight="normal" text-decoration="normal" x="1015" y="382" text-anchor="start" dominant-baseline="alphabetic" stroke-opacity="1" stroke-linejoin="bevel" stroke-miterlimit="10" stroke-width="3">Z</text><text fill="rgb(97,97,97)" stroke="none" font-family="geogebra-sans-serif, sans-serif" font-size="16px" font-style="normal" font-weight="normal" text-decoration="normal" x="1015" y="382" text-anchor="start" dominant-baseline="alphabetic" fill-opacity="1">Z</text><path fill="rgb(97,97,97)" stroke="none" paint-order="stroke fill markers" d=" M 956.0948596647434 495.8325091223501 C 956.0948596647434 498.593932871504 953.8562834138974 500.8325091223501 951.0948596647434 500.8325091223501 C 948.3334359155893 500.8325091223501 946.0948596647434 498.593932871504 946.0948596647434 495.8325091223501 C 946.0948596647434 493.0710853731961 948.3334359155893 490.8325091223501 951.0948596647434 490.8325091223501 C 953.8562834138974 490.8325091223501 956.0948596647434 493.0710853731961 956.0948596647434 495.8325091223501 Z" fill-opacity="1"/><path fill="none" stroke="rgb(0,0,0)" paint-order="fill stroke markers" d=" M 956.0948596647434 495.8325091223501 C 956.0948596647434 498.593932871504 953.8562834138974 500.8325091223501 951.0948596647434 500.8325091223501 C 948.3334359155893 500.8325091223501 946.0948596647434 498.593932871504 946.0948596647434 495.8325091223501 C 946.0948596647434 493.0710853731961 948.3334359155893 490.8325091223501 951.0948596647434 490.8325091223501 C 953.8562834138974 490.8325091223501 956.0948596647434 493.0710853731961 956.0948596647434 495.8325091223501 Z" stroke-opacity="1" stroke-linecap="round" stroke-linejoin="round" stroke-miterlimit="10"/><text fill="rgb(97,97,97)" stroke="none" font-family="geogebra-sans-serif, sans-serif" font-size="16px" font-style="normal" font-weight="normal" text-decoration="normal" x="955" y="486" text-anchor="start" dominant-baseline="alphabetic" fill-opacity="1">A</text><text fill="none" stroke="rgb(255,255,255)" font-family="geogebra-sans-serif, sans-serif" font-size="16px" font-style="normal" font-weight="normal" text-decoration="normal" x="955" y="486" text-anchor="start" dominant-baseline="alphabetic" stroke-opacity="1" stroke-linejoin="bevel" stroke-miterlimit="10" stroke-width="3">A</text><text fill="rgb(97,97,97)" stroke="none" font-family="geogebra-sans-serif, sans-serif" font-size="16px" font-style="normal" font-weight="normal" text-decoration="normal" x="955" y="486" text-anchor="start" dominant-baseline="alphabetic" fill-opacity="1">A</text><text fill="rgb(97,97,97)" stroke="none" font-family="geogebra-sans-serif, sans-serif" font-size="14px" font-style="normal" font-weight="normal" text-decoration="normal" x="966" y="493" text-anchor="start" dominant-baseline="alphabetic" fill-opacity="1">1</text><text fill="none" stroke="rgb(255,255,255)" font-family="geogebra-sans-serif, sans-serif" font-size="14px" font-style="normal" font-weight="normal" text-decoration="normal" x="966" y="493" text-anchor="start" dominant-baseline="alphabetic" stroke-opacity="1" stroke-linejoin="bevel" stroke-miterlimit="10" stroke-width="3">1</text><text fill="rgb(97,97,97)" stroke="none" font-family="geogebra-sans-serif, sans-serif" font-size="14px" font-style="normal" font-weight="normal" text-decoration="normal" x="966" y="493" text-anchor="start" dominant-baseline="alphabetic" fill-opacity="1">1</text><path fill="rgb(97,97,97)" stroke="none" paint-order="stroke fill markers" d=" M 1016.5886765996951 599.3983644751066 C 1016.5886765996951 602.1597882242606 1014.3501003488491 604.3983644751066 1011.5886765996951 604.3983644751066 C 1008.8272528505411 604.3983644751066 1006.5886765996951 602.1597882242606 1006.5886765996951 599.3983644751066 C 1006.5886765996951 596.6369407259526 1008.8272528505411 594.3983644751066 1011.5886765996951 594.3983644751066 C 1014.3501003488491 594.3983644751066 1016.5886765996951 596.6369407259526 1016.5886765996951 599.3983644751066 Z" fill-opacity="1"/><path fill="none" stroke="rgb(0,0,0)" paint-order="fill stroke markers" d=" M 1016.5886765996951 599.3983644751066 C 1016.5886765996951 602.1597882242606 1014.3501003488491 604.3983644751066 1011.5886765996951 604.3983644751066 C 1008.8272528505411 604.3983644751066 1006.5886765996951 602.1597882242606 1006.5886765996951 599.3983644751066 C 1006.5886765996951 596.6369407259526 1008.8272528505411 594.3983644751066 1011.5886765996951 594.3983644751066 C 1014.3501003488491 594.3983644751066 1016.5886765996951 596.6369407259526 1016.5886765996951 599.3983644751066 Z" stroke-opacity="1" stroke-linecap="round" stroke-linejoin="round" stroke-miterlimit="10"/><text fill="rgb(97,97,97)" stroke="none" font-family="geogebra-sans-serif, sans-serif" font-size="16px" font-style="normal" font-weight="normal" text-decoration="normal" x="1016" y="589" text-anchor="start" dominant-baseline="alphabetic" fill-opacity="1">B</text><text fill="none" stroke="rgb(255,255,255)" font-family="geogebra-sans-serif, sans-serif" font-size="16px" font-style="normal" font-weight="normal" text-decoration="normal" x="1016" y="589" text-anchor="start" dominant-baseline="alphabetic" stroke-opacity="1" stroke-linejoin="bevel" stroke-miterlimit="10" stroke-width="3">B</text><text fill="rgb(97,97,97)" stroke="none" font-family="geogebra-sans-serif, sans-serif" font-size="16px" font-style="normal" font-weight="normal" text-decoration="normal" x="1016" y="589" text-anchor="start" dominant-baseline="alphabetic" fill-opacity="1">B</text><text fill="rgb(97,97,97)" stroke="none" font-family="geogebra-sans-serif, sans-serif" font-size="14px" font-style="normal" font-weight="normal" text-decoration="normal" x="1027" y="596" text-anchor="start" dominant-baseline="alphabetic" fill-opacity="1">1</text><text fill="none" stroke="rgb(255,255,255)" font-family="geogebra-sans-serif, sans-serif" font-size="14px" font-style="normal" font-weight="normal" text-decoration="normal" x="1027" y="596" text-anchor="start" dominant-baseline="alphabetic" stroke-opacity="1" stroke-linejoin="bevel" stroke-miterlimit="10" stroke-width="3">1</text><text fill="rgb(97,97,97)" stroke="none" font-family="geogebra-sans-serif, sans-serif" font-size="14px" font-style="normal" font-weight="normal" text-decoration="normal" x="1027" y="596" text-anchor="start" dominant-baseline="alphabetic" fill-opacity="1">1</text></g></g></svg>