<svg version="1.1" xmlns="http://www.w3.org/2000/svg" xmlns:xlink="http://www.w3.org/1999/xlink" width="1124" height="950"><defs><clipPath id="aNLOelfHVIBL"><path fill="none" stroke="none" d=" M 0 0 L 1124 0 L 1124 950 L 0 950 L 0 0 Z"/></clipPath></defs><g transform="scale(1,1)" clip-path="url(#aNLOelfHVIBL)"><g><rect fill="rgb(255,255,255)" stroke="none" x="0" y="0" width="1124" height="950" fill-opacity="1"/><path fill="rgb(21,101,192)" stroke="none" paint-order="stroke fill markers" fill-rule="evenodd" d=" M 585.2849159607308 151.98946438451165 L 398.1587551297825 195.24853245233467 L 272.19755316358834 340.2358513345671 L 255.5142079494443 531.5711931559156 L 354.48119031310557 696.170960589704 L 531.2964767556649 771.1636370165537 L 718.4226375866132 727.9045689487307 L 844.3838395528073 582.9172500664984 L 861.0671847669514 391.58190824514986 L 762.1002024032902 226.98214081136123 Z" fill-opacity="0.09803921568627451"/><path fill="none" stroke="rgb(21,101,192)" paint-order="fill stroke markers" d=" M 585.2849159607308 151.98946438451165 L 398.1587551297825 195.24853245233467 L 272.19755316358834 340.2358513345671 L 255.5142079494443 531.5711931559156 L 354.48119031310557 696.170960589704 L 531.2964767556649 771.1636370165537 L 718.4226375866132 727.9045689487307 L 844.3838395528073 582.9172500664984 L 861.0671847669514 391.58190824514986 L 762.1002024032902 226.98214081136123 Z" stroke-opacity="0.8" stroke-linecap="round" stroke-linejoin="round" stroke-miterlimit="10" stroke-width="2.5"/><path fill="rgb(0,0,0)" stroke="none" paint-order="stroke fill markers" d=" M 623.8745464105427 386.08642808630225 C 607.932598650162 372.2364795731436 588.0152669833183 363.78894068083696 566.977164840688 361.9545387488423 L 558.2906963581978 461.5765507005327 Z" fill-opacity="0.09803921568627451"/><path fill="none" stroke="rgb(0,0,0)" paint-order="fill stroke markers" d=" M 623.8745464105427 386.08642808630225 C 607.932598650162 372.2364795731436 588.0152669833183 363.78894068083696 566.977164840688 361.9545387488423 L 558.2906963581978 461.5765507005327 Z" stroke-opacity="0.6" stroke-linecap="round" stroke-linejoin="round" stroke-miterlimit="10" stroke-width="2"/><text fill="rgb(0,0,0)" stroke="none" font-family="geogebra-sans-serif, sans-serif" font-size="16px" font-style="normal" font-weight="normal" text-decoration="normal" x="578" y="412" text-anchor="start" dominant-baseline="alphabetic" fill-opacity="1">α</text><text fill="none" stroke="rgb(255,255,255)" font-family="geogebra-sans-serif, sans-serif" font-size="16px" font-style="normal" font-weight="normal" text-decoration="normal" x="578" y="412" text-anchor="start" dominant-baseline="alphabetic" stroke-opacity="1" stroke-linejoin="bevel" stroke-miterlimit="10" stroke-width="3">α</text><text fill="rgb(0,0,0)" stroke="none" font-family="geogebra-sans-serif, sans-serif" font-size="16px" font-style="normal" font-weight="normal" text-decoration="normal" x="578" y="412" text-anchor="start" dominant-baseline="alphabetic" fill-opacity="1">α</text><path fill="none" stroke="rgb(21,101,192)" paint-order="fill stroke markers" d=" M 585.2849159607308 151.98946438451165 L 398.1587551297825 195.24853245233467" stroke-opacity="0.8" stroke-linecap="round" stroke-linejoin="round" stroke-miterlimit="10" stroke-width="2.5"/><path fill="none" stroke="rgb(21,101,192)" paint-order="fill stroke markers" d=" M 398.1587551297825 195.24853245233467 L 272.19755316358834 340.2358513345671" stroke-opacity="0.8" stroke-linecap="round" stroke-linejoin="round" stroke-miterlimit="10" stroke-width="2.5"/><path fill="none" stroke="rgb(21,101,192)" paint-order="fill stroke markers" d=" M 272.19755316358834 340.2358513345671 L 255.5142079494443 531.5711931559156" stroke-opacity="0.8" stroke-linecap="round" stroke-linejoin="round" stroke-miterlimit="10" stroke-width="2.5"/><path fill="none" stroke="rgb(21,101,192)" paint-order="fill stroke markers" d=" M 255.5142079494443 531.5711931559156 L 354.48119031310557 696.170960589704" stroke-opacity="0.8" stroke-linecap="round" stroke-linejoin="round" stroke-miterlimit="10" stroke-width="2.5"/><path fill="none" stroke="rgb(21,101,192)" paint-order="fill stroke markers" d=" M 354.48119031310557 696.170960589704 L 531.2964767556649 771.1636370165537" stroke-opacity="0.8" stroke-linecap="round" stroke-linejoin="round" stroke-miterlimit="10" stroke-width="2.5"/><path fill="none" stroke="rgb(21,101,192)" paint-order="fill stroke markers" d=" M 531.2964767556649 771.1636370165537 L 718.4226375866132 727.9045689487307" stroke-opacity="0.8" stroke-linecap="round" stroke-linejoin="round" stroke-miterlimit="10" stroke-width="2.5"/><path fill="none" stroke="rgb(21,101,192)" paint-order="fill stroke markers" d=" M 718.4226375866132 727.9045689487307 L 844.3838395528073 582.9172500664984" stroke-opacity="0.8" stroke-linecap="round" stroke-linejoin="round" stroke-miterlimit="10" stroke-width="2.5"/><path fill="none" stroke="rgb(21,101,192)" paint-order="fill stroke markers" d=" M 844.3838395528073 582.9172500664984 L 861.0671847669514 391.58190824514986" stroke-opacity="0.8" stroke-linecap="round" stroke-linejoin="round" stroke-miterlimit="10" stroke-width="2.5"/><path fill="none" stroke="rgb(21,101,192)" paint-order="fill stroke markers" d=" M 861.0671847669514 391.58190824514986 L 762.1002024032902 226.98214081136123" stroke-opacity="0.8" stroke-linecap="round" stroke-linejoin="round" stroke-miterlimit="10" stroke-width="2.5"/><path fill="none" stroke="rgb(21,101,192)" paint-order="fill stroke markers" d=" M 762.1002024032902 226.98214081136123 L 585.2849159607308 151.98946438451165" stroke-opacity="0.8" stroke-linecap="round" stroke-linejoin="round" stroke-miterlimit="10" stroke-width="2.5"/><path fill="none" stroke="rgb(97,97,97)" paint-order="fill stroke markers" d=" M 585.2849159607308 151.98946438451165 L 558.2906963581978 461.5765507005327" stroke-opacity="0.8" stroke-linecap="round" stroke-linejoin="round" stroke-miterlimit="10" stroke-width="2.5"/><path fill="none" stroke="rgb(97,97,97)" paint-order="fill stroke markers" d=" M 558.2906963581978 461.5765507005327 L 762.1002024032902 226.98214081136123" stroke-opacity="0.8" stroke-linecap="round" stroke-linejoin="round" stroke-miterlimit="10" stroke-width="2.5"/><path fill="none" stroke="rgb(97,97,97)" paint-order="fill stroke markers" d=" M 558.2906963581978 461.5765507005327 L 398.1587551297825 195.24853245233467" stroke-opacity="0.8" stroke-linejoin="round" stroke-miterlimit="10" stroke-width="2.5" stroke-dasharray="10.5,8"/><path fill="none" stroke="rgb(97,97,97)" paint-order="fill stroke markers" d=" M 558.2906963581978 461.5765507005327 L 272.19755316358834 340.2358513345671" stroke-opacity="0.8" stroke-linejoin="round" stroke-miterlimit="10" stroke-width="2.5" stroke-dasharray="10.5,8"/><path fill="none" stroke="rgb(97,97,97)" paint-order="fill stroke markers" d=" M 558.2906963581978 461.5765507005327 L 255.5142079494443 531.5711931559156" stroke-opacity="0.8" stroke-linejoin="round" stroke-miterlimit="10" stroke-width="2.5" stroke-dasharray="10.5,8"/><path fill="none" stroke="rgb(97,97,97)" paint-order="fill stroke markers" d=" M 558.2906963581978 461.5765507005327 L 354.48119031310557 696.170960589704" stroke-opacity="0.8" stroke-linejoin="round" stroke-miterlimit="10" stroke-width="2.5" stroke-dasharray="10.5,8"/><path fill="none" stroke="rgb(97,97,97)" paint-order="fill stroke markers" d=" M 558.2906963581978 461.5765507005327 L 531.2964767556649 771.1636370165537" stroke-opacity="0.8" stroke-linejoin="round" stroke-miterlimit="10" stroke-width="2.5" stroke-dasharray="10.5,8"/><path fill="none" stroke="rgb(97,97,97)" paint-order="fill stroke markers" d=" M 558.2906963581978 461.5765507005327 L 718.4226375866132 727.9045689487307" stroke-opacity="0.8" stroke-linejoin="round" stroke-miterlimit="10" stroke-width="2.5" stroke-dasharray="10.5,8"/><path fill="none" stroke="rgb(97,97,97)" paint-order="fill stroke markers" d=" M 558.2906963581978 461.5765507005327 L 844.3838395528073 582.9172500664984" stroke-opacity="0.8" stroke-linejoin="round" stroke-miterlimit="10" stroke-width="2.5" stroke-dasharray="10.5,8"/><path fill="none" stroke="rgb(97,97,97)" paint-order="fill stroke markers" d=" M 558.2906963581978 461.5765507005327 L 861.0671847669514 391.58190824514986" stroke-opacity="0.8" stroke-linejoin="round" stroke-miterlimit="10" stroke-width="2.5" stroke-dasharray="10.5,8"/><path fill="rgb(21,101,192)" stroke="none" paint-order="stroke fill markers" d=" M 590.2849159607308 151.98946438451165 C 590.2849159607308 154.75088813366563 588.0463397098848 156.98946438451165 585.2849159607308 156.98946438451165 C 582.5234922115768 156.98946438451165 580.2849159607308 154.75088813366563 580.2849159607308 151.98946438451165 C 580.2849159607308 149.22804063535767 582.5234922115768 146.98946438451165 585.2849159607308 146.98946438451165 C 588.0463397098848 146.98946438451165 590.2849159607308 149.22804063535767 590.2849159607308 151.98946438451165 Z" fill-opacity="1"/><path fill="none" stroke="rgb(0,0,0)" paint-order="fill stroke markers" d=" M 590.2849159607308 151.98946438451165 C 590.2849159607308 154.75088813366563 588.0463397098848 156.98946438451165 585.2849159607308 156.98946438451165 C 582.5234922115768 156.98946438451165 580.2849159607308 154.75088813366563 580.2849159607308 151.98946438451165 C 580.2849159607308 149.22804063535767 582.5234922115768 146.98946438451165 585.2849159607308 146.98946438451165 C 588.0463397098848 146.98946438451165 590.2849159607308 149.22804063535767 590.2849159607308 151.98946438451165 Z" stroke-opacity="1" stroke-linecap="round" stroke-linejoin="round" stroke-miterlimit="10"/><text fill="rgb(21,101,192)" stroke="none" font-family="geogebra-sans-serif, sans-serif" font-size="16px" font-style="normal" font-weight="normal" text-decoration="normal" x="589" y="142" text-anchor="start" dominant-baseline="alphabetic" fill-opacity="1">A</text><text fill="none" stroke="rgb(255,255,255)" font-family="geogebra-sans-serif, sans-serif" font-size="16px" font-style="normal" font-weight="normal" text-decoration="normal" x="589" y="142" text-anchor="start" dominant-baseline="alphabetic" stroke-opacity="1" stroke-linejoin="bevel" stroke-miterlimit="10" stroke-width="3">A</text><text fill="rgb(21,101,192)" stroke="none" font-family="geogebra-sans-serif, sans-serif" font-size="16px" font-style="normal" font-weight="normal" text-decoration="normal" x="589" y="142" text-anchor="start" dominant-baseline="alphabetic" fill-opacity="1">A</text><path fill="rgb(21,101,192)" stroke="none" paint-order="stroke fill markers" d=" M 403.1587551297825 195.24853245233467 C 403.1587551297825 198.00995620148865 400.92017887893644 200.24853245233467 398.1587551297825 200.24853245233467 C 395.39733138062854 200.24853245233467 393.1587551297825 198.00995620148865 393.1587551297825 195.24853245233467 C 393.1587551297825 192.4871087031807 395.39733138062854 190.24853245233467 398.1587551297825 190.24853245233467 C 400.92017887893644 190.24853245233467 403.1587551297825 192.4871087031807 403.1587551297825 195.24853245233467 Z" fill-opacity="1"/><path fill="none" stroke="rgb(0,0,0)" paint-order="fill stroke markers" d=" M 403.1587551297825 195.24853245233467 C 403.1587551297825 198.00995620148865 400.92017887893644 200.24853245233467 398.1587551297825 200.24853245233467 C 395.39733138062854 200.24853245233467 393.1587551297825 198.00995620148865 393.1587551297825 195.24853245233467 C 393.1587551297825 192.4871087031807 395.39733138062854 190.24853245233467 398.1587551297825 190.24853245233467 C 400.92017887893644 190.24853245233467 403.1587551297825 192.4871087031807 403.1587551297825 195.24853245233467 Z" stroke-opacity="1" stroke-linecap="round" stroke-linejoin="round" stroke-miterlimit="10"/><text fill="rgb(21,101,192)" stroke="none" font-family="geogebra-sans-serif, sans-serif" font-size="16px" font-style="normal" font-weight="normal" text-decoration="normal" x="402" y="185" text-anchor="start" dominant-baseline="alphabetic" fill-opacity="1">B</text><text fill="none" stroke="rgb(255,255,255)" font-family="geogebra-sans-serif, sans-serif" font-size="16px" font-style="normal" font-weight="normal" text-decoration="normal" x="402" y="185" text-anchor="start" dominant-baseline="alphabetic" stroke-opacity="1" stroke-linejoin="bevel" stroke-miterlimit="10" stroke-width="3">B</text><text fill="rgb(21,101,192)" stroke="none" font-family="geogebra-sans-serif, sans-serif" font-size="16px" font-style="normal" font-weight="normal" text-decoration="normal" x="402" y="185" text-anchor="start" dominant-baseline="alphabetic" fill-opacity="1">B</text><path fill="rgb(97,97,97)" stroke="none" paint-order="stroke fill markers" d=" M 277.19755316358834 340.2358513345671 C 277.19755316358834 342.99727508372104 274.9589769127423 345.2358513345671 272.19755316358834 345.2358513345671 C 269.4361294144344 345.2358513345671 267.19755316358834 342.99727508372104 267.19755316358834 340.2358513345671 C 267.19755316358834 337.47442758541314 269.4361294144344 335.2358513345671 272.19755316358834 335.2358513345671 C 274.9589769127423 335.2358513345671 277.19755316358834 337.47442758541314 277.19755316358834 340.2358513345671 Z" fill-opacity="1"/><path fill="none" stroke="rgb(0,0,0)" paint-order="fill stroke markers" d=" M 277.19755316358834 340.2358513345671 C 277.19755316358834 342.99727508372104 274.9589769127423 345.2358513345671 272.19755316358834 345.2358513345671 C 269.4361294144344 345.2358513345671 267.19755316358834 342.99727508372104 267.19755316358834 340.2358513345671 C 267.19755316358834 337.47442758541314 269.4361294144344 335.2358513345671 272.19755316358834 335.2358513345671 C 274.9589769127423 335.2358513345671 277.19755316358834 337.47442758541314 277.19755316358834 340.2358513345671 Z" stroke-opacity="1" stroke-linecap="round" stroke-linejoin="round" stroke-miterlimit="10"/><text fill="rgb(97,97,97)" stroke="none" font-family="geogebra-sans-serif, sans-serif" font-size="16px" font-style="normal" font-weight="normal" text-decoration="normal" x="276" y="330" text-anchor="start" dominant-baseline="alphabetic" fill-opacity="1">C</text><text fill="none" stroke="rgb(255,255,255)" font-family="geogebra-sans-serif, sans-serif" font-size="16px" font-style="normal" font-weight="normal" text-decoration="normal" x="276" y="330" text-anchor="start" dominant-baseline="alphabetic" stroke-opacity="1" stroke-linejoin="bevel" stroke-miterlimit="10" stroke-width="3">C</text><text fill="rgb(97,97,97)" stroke="none" font-family="geogebra-sans-serif, sans-serif" font-size="16px" font-style="normal" font-weight="normal" text-decoration="normal" x="276" y="330" text-anchor="start" dominant-baseline="alphabetic" fill-opacity="1">C</text><path fill="rgb(97,97,97)" stroke="none" paint-order="stroke fill markers" d=" M 260.5142079494443 531.5711931559156 C 260.5142079494443 534.3326169050696 258.27563169859826 536.5711931559156 255.5142079494443 536.5711931559156 C 252.75278420029034 536.5711931559156 250.5142079494443 534.3326169050696 250.5142079494443 531.5711931559156 C 250.5142079494443 528.8097694067616 252.75278420029034 526.5711931559156 255.5142079494443 526.5711931559156 C 258.27563169859826 526.5711931559156 260.5142079494443 528.8097694067616 260.5142079494443 531.5711931559156 Z" fill-opacity="1"/><path fill="none" stroke="rgb(0,0,0)" paint-order="fill stroke markers" d=" M 260.5142079494443 531.5711931559156 C 260.5142079494443 534.3326169050696 258.27563169859826 536.5711931559156 255.5142079494443 536.5711931559156 C 252.75278420029034 536.5711931559156 250.5142079494443 534.3326169050696 250.5142079494443 531.5711931559156 C 250.5142079494443 528.8097694067616 252.75278420029034 526.5711931559156 255.5142079494443 526.5711931559156 C 258.27563169859826 526.5711931559156 260.5142079494443 528.8097694067616 260.5142079494443 531.5711931559156 Z" stroke-opacity="1" stroke-linecap="round" stroke-linejoin="round" stroke-miterlimit="10"/><text fill="rgb(97,97,97)" stroke="none" font-family="geogebra-sans-serif, sans-serif" font-size="16px" font-style="normal" font-weight="normal" text-decoration="normal" x="260" y="522" text-anchor="start" dominant-baseline="alphabetic" fill-opacity="1">D</text><text fill="none" stroke="rgb(255,255,255)" font-family="geogebra-sans-serif, sans-serif" font-size="16px" font-style="normal" font-weight="normal" text-decoration="normal" x="260" y="522" text-anchor="start" dominant-baseline="alphabetic" stroke-opacity="1" stroke-linejoin="bevel" stroke-miterlimit="10" stroke-width="3">D</text><text fill="rgb(97,97,97)" stroke="none" font-family="geogebra-sans-serif, sans-serif" font-size="16px" font-style="normal" font-weight="normal" text-decoration="normal" x="260" y="522" text-anchor="start" dominant-baseline="alphabetic" fill-opacity="1">D</text><path fill="rgb(97,97,97)" stroke="none" paint-order="stroke fill markers" d=" M 359.48119031310557 696.170960589704 C 359.48119031310557 698.932384338858 357.2426140622595 701.170960589704 354.48119031310557 701.170960589704 C 351.7197665639516 701.170960589704 349.48119031310557 698.932384338858 349.48119031310557 696.170960589704 C 349.48119031310557 693.40953684055 351.7197665639516 691.170960589704 354.48119031310557 691.170960589704 C 357.2426140622595 691.170960589704 359.48119031310557 693.40953684055 359.48119031310557 696.170960589704 Z" fill-opacity="1"/><path fill="none" stroke="rgb(0,0,0)" paint-order="fill stroke markers" d=" M 359.48119031310557 696.170960589704 C 359.48119031310557 698.932384338858 357.2426140622595 701.170960589704 354.48119031310557 701.170960589704 C 351.7197665639516 701.170960589704 349.48119031310557 698.932384338858 349.48119031310557 696.170960589704 C 349.48119031310557 693.40953684055 351.7197665639516 691.170960589704 354.48119031310557 691.170960589704 C 357.2426140622595 691.170960589704 359.48119031310557 693.40953684055 359.48119031310557 696.170960589704 Z" stroke-opacity="1" stroke-linecap="round" stroke-linejoin="round" stroke-miterlimit="10"/><text fill="rgb(97,97,97)" stroke="none" font-family="geogebra-sans-serif, sans-serif" font-size="16px" font-style="normal" font-weight="normal" text-decoration="normal" x="358" y="686" text-anchor="start" dominant-baseline="alphabetic" fill-opacity="1">E</text><text fill="none" stroke="rgb(255,255,255)" font-family="geogebra-sans-serif, sans-serif" font-size="16px" font-style="normal" font-weight="normal" text-decoration="normal" x="358" y="686" text-anchor="start" dominant-baseline="alphabetic" stroke-opacity="1" stroke-linejoin="bevel" stroke-miterlimit="10" stroke-width="3">E</text><text fill="rgb(97,97,97)" stroke="none" font-family="geogebra-sans-serif, sans-serif" font-size="16px" font-style="normal" font-weight="normal" text-decoration="normal" x="358" y="686" text-anchor="start" dominant-baseline="alphabetic" fill-opacity="1">E</text><path fill="rgb(97,97,97)" stroke="none" paint-order="stroke fill markers" d=" M 536.2964767556649 771.1636370165537 C 536.2964767556649 773.9250607657077 534.0579005048189 776.1636370165537 531.2964767556649 776.1636370165537 C 528.5350530065109 776.1636370165537 526.2964767556649 773.9250607657077 526.2964767556649 771.1636370165537 C 526.2964767556649 768.4022132673997 528.5350530065109 766.1636370165537 531.2964767556649 766.1636370165537 C 534.0579005048189 766.1636370165537 536.2964767556649 768.4022132673997 536.2964767556649 771.1636370165537 Z" fill-opacity="1"/><path fill="none" stroke="rgb(0,0,0)" paint-order="fill stroke markers" d=" M 536.2964767556649 771.1636370165537 C 536.2964767556649 773.9250607657077 534.0579005048189 776.1636370165537 531.2964767556649 776.1636370165537 C 528.5350530065109 776.1636370165537 526.2964767556649 773.9250607657077 526.2964767556649 771.1636370165537 C 526.2964767556649 768.4022132673997 528.5350530065109 766.1636370165537 531.2964767556649 766.1636370165537 C 534.0579005048189 766.1636370165537 536.2964767556649 768.4022132673997 536.2964767556649 771.1636370165537 Z" stroke-opacity="1" stroke-linecap="round" stroke-linejoin="round" stroke-miterlimit="10"/><text fill="rgb(97,97,97)" stroke="none" font-family="geogebra-sans-serif, sans-serif" font-size="16px" font-style="normal" font-weight="normal" text-decoration="normal" x="535" y="761" text-anchor="start" dominant-baseline="alphabetic" fill-opacity="1">F</text><text fill="none" stroke="rgb(255,255,255)" font-family="geogebra-sans-serif, sans-serif" font-size="16px" font-style="normal" font-weight="normal" text-decoration="normal" x="535" y="761" text-anchor="start" dominant-baseline="alphabetic" stroke-opacity="1" stroke-linejoin="bevel" stroke-miterlimit="10" stroke-width="3">F</text><text fill="rgb(97,97,97)" stroke="none" font-family="geogebra-sans-serif, sans-serif" font-size="16px" font-style="normal" font-weight="normal" text-decoration="normal" x="535" y="761" text-anchor="start" dominant-baseline="alphabetic" fill-opacity="1">F</text><path fill="rgb(97,97,97)" stroke="none" paint-order="stroke fill markers" d=" M 723.4226375866132 727.9045689487307 C 723.4226375866132 730.6659926978847 721.1840613357672 732.9045689487307 718.4226375866132 732.9045689487307 C 715.6612138374592 732.9045689487307 713.4226375866132 730.6659926978847 713.4226375866132 727.9045689487307 C 713.4226375866132 725.1431451995767 715.6612138374592 722.9045689487307 718.4226375866132 722.9045689487307 C 721.1840613357672 722.9045689487307 723.4226375866132 725.1431451995767 723.4226375866132 727.9045689487307 Z" fill-opacity="1"/><path fill="none" stroke="rgb(0,0,0)" paint-order="fill stroke markers" d=" M 723.4226375866132 727.9045689487307 C 723.4226375866132 730.6659926978847 721.1840613357672 732.9045689487307 718.4226375866132 732.9045689487307 C 715.6612138374592 732.9045689487307 713.4226375866132 730.6659926978847 713.4226375866132 727.9045689487307 C 713.4226375866132 725.1431451995767 715.6612138374592 722.9045689487307 718.4226375866132 722.9045689487307 C 721.1840613357672 722.9045689487307 723.4226375866132 725.1431451995767 723.4226375866132 727.9045689487307 Z" stroke-opacity="1" stroke-linecap="round" stroke-linejoin="round" stroke-miterlimit="10"/><text fill="rgb(97,97,97)" stroke="none" font-family="geogebra-sans-serif, sans-serif" font-size="16px" font-style="normal" font-weight="normal" text-decoration="normal" x="722" y="718" text-anchor="start" dominant-baseline="alphabetic" fill-opacity="1">G</text><text fill="none" stroke="rgb(255,255,255)" font-family="geogebra-sans-serif, sans-serif" font-size="16px" font-style="normal" font-weight="normal" text-decoration="normal" x="722" y="718" text-anchor="start" dominant-baseline="alphabetic" stroke-opacity="1" stroke-linejoin="bevel" stroke-miterlimit="10" stroke-width="3">G</text><text fill="rgb(97,97,97)" stroke="none" font-family="geogebra-sans-serif, sans-serif" font-size="16px" font-style="normal" font-weight="normal" text-decoration="normal" x="722" y="718" text-anchor="start" dominant-baseline="alphabetic" fill-opacity="1">G</text><path fill="rgb(97,97,97)" stroke="none" paint-order="stroke fill markers" d=" M 849.3838395528073 582.9172500664984 C 849.3838395528073 585.6786738156524 847.1452633019613 587.9172500664984 844.3838395528073 587.9172500664984 C 841.6224158036533 587.9172500664984 839.3838395528073 585.6786738156524 839.3838395528073 582.9172500664984 C 839.3838395528073 580.1558263173443 841.6224158036533 577.9172500664984 844.3838395528073 577.9172500664984 C 847.1452633019613 577.9172500664984 849.3838395528073 580.1558263173443 849.3838395528073 582.9172500664984 Z" fill-opacity="1"/><path fill="none" stroke="rgb(0,0,0)" paint-order="fill stroke markers" d=" M 849.3838395528073 582.9172500664984 C 849.3838395528073 585.6786738156524 847.1452633019613 587.9172500664984 844.3838395528073 587.9172500664984 C 841.6224158036533 587.9172500664984 839.3838395528073 585.6786738156524 839.3838395528073 582.9172500664984 C 839.3838395528073 580.1558263173443 841.6224158036533 577.9172500664984 844.3838395528073 577.9172500664984 C 847.1452633019613 577.9172500664984 849.3838395528073 580.1558263173443 849.3838395528073 582.9172500664984 Z" stroke-opacity="1" stroke-linecap="round" stroke-linejoin="round" stroke-miterlimit="10"/><text fill="rgb(97,97,97)" stroke="none" font-family="geogebra-sans-serif, sans-serif" font-size="16px" font-style="normal" font-weight="normal" text-decoration="normal" x="848" y="573" text-anchor="start" dominant-baseline="alphabetic" fill-opacity="1">H</text><text fill="none" stroke="rgb(255,255,255)" font-family="geogebra-sans-serif, sans-serif" font-size="16px" font-style="normal" font-weight="normal" text-decoration="normal" x="848" y="573" text-anchor="start" dominant-baseline="alphabetic" stroke-opacity="1" stroke-linejoin="bevel" stroke-miterlimit="10" stroke-width="3">H</text><text fill="rgb(97,97,97)" stroke="none" font-family="geogebra-sans-serif, sans-serif" font-size="16px" font-style="normal" font-weight="normal" text-decoration="normal" x="848" y="573" text-anchor="start" dominant-baseline="alphabetic" fill-opacity="1">H</text><path fill="rgb(97,97,97)" stroke="none" paint-order="stroke fill markers" d=" M 866.0671847669514 391.58190824514986 C 866.0671847669514 394.3433319943038 863.8286085161054 396.58190824514986 861.0671847669514 396.58190824514986 C 858.3057610177974 396.58190824514986 856.0671847669514 394.3433319943038 856.0671847669514 391.58190824514986 C 856.0671847669514 388.8204844959959 858.3057610177974 386.58190824514986 861.0671847669514 386.58190824514986 C 863.8286085161054 386.58190824514986 866.0671847669514 388.8204844959959 866.0671847669514 391.58190824514986 Z" fill-opacity="1"/><path fill="none" stroke="rgb(0,0,0)" paint-order="fill stroke markers" d=" M 866.0671847669514 391.58190824514986 C 866.0671847669514 394.3433319943038 863.8286085161054 396.58190824514986 861.0671847669514 396.58190824514986 C 858.3057610177974 396.58190824514986 856.0671847669514 394.3433319943038 856.0671847669514 391.58190824514986 C 856.0671847669514 388.8204844959959 858.3057610177974 386.58190824514986 861.0671847669514 386.58190824514986 C 863.8286085161054 386.58190824514986 866.0671847669514 388.8204844959959 866.0671847669514 391.58190824514986 Z" stroke-opacity="1" stroke-linecap="round" stroke-linejoin="round" stroke-miterlimit="10"/><text fill="rgb(97,97,97)" stroke="none" font-family="geogebra-sans-serif, sans-serif" font-size="16px" font-style="normal" font-weight="normal" text-decoration="normal" x="865" y="382" text-anchor="start" dominant-baseline="alphabetic" fill-opacity="1">I</text><text fill="none" stroke="rgb(255,255,255)" font-family="geogebra-sans-serif, sans-serif" font-size="16px" font-style="normal" font-weight="normal" text-decoration="normal" x="865" y="382" text-anchor="start" dominant-baseline="alphabetic" stroke-opacity="1" stroke-linejoin="bevel" stroke-miterlimit="10" stroke-width="3">I</text><text fill="rgb(97,97,97)" stroke="none" font-family="geogebra-sans-serif, sans-serif" font-size="16px" font-style="normal" font-weight="normal" text-decoration="normal" x="865" y="382" text-anchor="start" dominant-baseline="alphabetic" fill-opacity="1">I</text><path fill="rgb(97,97,97)" stroke="none" paint-order="stroke fill markers" d=" M 767.1002024032902 226.98214081136123 C 767.1002024032902 229.7435645605152 764.8616261524442 231.98214081136123 762.1002024032902 231.98214081136123 C 759.3387786541361 231.98214081136123 757.1002024032902 229.7435645605152 757.1002024032902 226.98214081136123 C 757.1002024032902 224.22071706220726 759.3387786541361 221.98214081136123 762.1002024032902 221.98214081136123 C 764.8616261524442 221.98214081136123 767.1002024032902 224.22071706220726 767.1002024032902 226.98214081136123 Z" fill-opacity="1"/><path fill="none" stroke="rgb(0,0,0)" paint-order="fill stroke markers" d=" M 767.1002024032902 226.98214081136123 C 767.1002024032902 229.7435645605152 764.8616261524442 231.98214081136123 762.1002024032902 231.98214081136123 C 759.3387786541361 231.98214081136123 757.1002024032902 229.7435645605152 757.1002024032902 226.98214081136123 C 757.1002024032902 224.22071706220726 759.3387786541361 221.98214081136123 762.1002024032902 221.98214081136123 C 764.8616261524442 221.98214081136123 767.1002024032902 224.22071706220726 767.1002024032902 226.98214081136123 Z" stroke-opacity="1" stroke-linecap="round" stroke-linejoin="round" stroke-miterlimit="10"/><text fill="rgb(97,97,97)" stroke="none" font-family="geogebra-sans-serif, sans-serif" font-size="16px" font-style="normal" font-weight="normal" text-decoration="normal" x="766" y="217" text-anchor="start" dominant-baseline="alphabetic" fill-opacity="1">J</text><text fill="none" stroke="rgb(255,255,255)" font-family="geogebra-sans-serif, sans-serif" font-size="16px" font-style="normal" font-weight="normal" text-decoration="normal" x="766" y="217" text-anchor="start" dominant-baseline="alphabetic" stroke-opacity="1" stroke-linejoin="bevel" stroke-miterlimit="10" stroke-width="3">J</text><text fill="rgb(97,97,97)" stroke="none" font-family="geogebra-sans-serif, sans-serif" font-size="16px" font-style="normal" font-weight="normal" text-decoration="normal" x="766" y="217" text-anchor="start" dominant-baseline="alphabetic" fill-opacity="1">J</text><path fill="rgb(97,97,97)" stroke="none" paint-order="stroke fill markers" d=" M 562.2906963581978 461.5765507005327 C 562.2906963581978 463.7856896998559 560.499835357521 465.5765507005327 558.2906963581978 465.5765507005327 C 556.0815573588746 465.5765507005327 554.2906963581978 463.7856896998559 554.2906963581978 461.5765507005327 C 554.2906963581978 459.36741170120956 556.0815573588746 457.5765507005327 558.2906963581978 457.5765507005327 C 560.499835357521 457.5765507005327 562.2906963581978 459.36741170120956 562.2906963581978 461.5765507005327 Z" fill-opacity="1"/><path fill="none" stroke="rgb(0,0,0)" paint-order="fill stroke markers" d=" M 562.2906963581978 461.5765507005327 C 562.2906963581978 463.7856896998559 560.499835357521 465.5765507005327 558.2906963581978 465.5765507005327 C 556.0815573588746 465.5765507005327 554.2906963581978 463.7856896998559 554.2906963581978 461.5765507005327 C 554.2906963581978 459.36741170120956 556.0815573588746 457.5765507005327 558.2906963581978 457.5765507005327 C 560.499835357521 457.5765507005327 562.2906963581978 459.36741170120956 562.2906963581978 461.5765507005327 Z" stroke-opacity="1" stroke-linecap="round" stroke-linejoin="round" stroke-miterlimit="10"/></g></g></svg>