<svg version="1.1" xmlns="http://www.w3.org/2000/svg" xmlns:xlink="http://www.w3.org/1999/xlink" width="1124" height="950"><defs><clipPath id="CsAmpHgZTcQu"><path fill="none" stroke="none" d=" M 0 0 L 1124 0 L 1124 950 L 0 950 L 0 0 Z"/></clipPath></defs><g transform="scale(1,1)" clip-path="url(#CsAmpHgZTcQu)"><g><rect fill="rgb(255,255,255)" stroke="none" x="0" y="0" width="1124" height="950" fill-opacity="1"/><path fill="rgb(21,101,192)" stroke="none" paint-order="stroke fill markers" fill-rule="evenodd" d=" M 449.5 812.5000000000025 L 674.5 812.5000000000025 L 856.528823734363 680.2483182341952 L 926.0576474687261 466.2606020677841 L 856.5288237343632 252.27288590137297 L 674.5 120.02120413556548 L 449.5000000000001 120.02120413556548 L 267.471176265637 252.27288590137283 L 197.94235253127385 466.2606020677839 L 267.47117626563687 680.248318234195 Z" fill-opacity="0.09803921568627451"/><path fill="none" stroke="rgb(21,101,192)" paint-order="fill stroke markers" d=" M 449.5 812.5000000000025 L 674.5 812.5000000000025 L 856.528823734363 680.2483182341952 L 926.0576474687261 466.2606020677841 L 856.5288237343632 252.27288590137297 L 674.5 120.02120413556548 L 449.5000000000001 120.02120413556548 L 267.471176265637 252.27288590137283 L 197.94235253127385 466.2606020677839 L 267.47117626563687 680.248318234195 Z" stroke-opacity="0.8" stroke-linecap="round" stroke-linejoin="round" stroke-miterlimit="10" stroke-width="2.5"/><path fill="rgb(0,0,0)" stroke="none" paint-order="stroke fill markers" d=" M 531.0983005625053 561.3662536973001 C 551.1826411025601 567.892051524613 572.8173588974399 567.892051524613 592.9016994374948 561.3662536973001 L 562 466.260602067784 Z" fill-opacity="0.09803921568627451"/><path fill="none" stroke="rgb(0,0,0)" paint-order="fill stroke markers" d=" M 531.0983005625053 561.3662536973001 C 551.1826411025601 567.892051524613 572.8173588974399 567.892051524613 592.9016994374948 561.3662536973001 L 562 466.260602067784 Z" stroke-opacity="0.6" stroke-linecap="round" stroke-linejoin="round" stroke-miterlimit="10" stroke-width="2"/><text fill="rgb(0,0,0)" stroke="none" font-family="geogebra-sans-serif, sans-serif" font-size="16px" font-style="normal" font-weight="normal" text-decoration="normal" x="559" y="530" text-anchor="start" dominant-baseline="alphabetic" fill-opacity="1">α</text><text fill="none" stroke="rgb(255,255,255)" font-family="geogebra-sans-serif, sans-serif" font-size="16px" font-style="normal" font-weight="normal" text-decoration="normal" x="559" y="530" text-anchor="start" dominant-baseline="alphabetic" stroke-opacity="1" stroke-linejoin="bevel" stroke-miterlimit="10" stroke-width="3">α</text><text fill="rgb(0,0,0)" stroke="none" font-family="geogebra-sans-serif, sans-serif" font-size="16px" font-style="normal" font-weight="normal" text-decoration="normal" x="559" y="530" text-anchor="start" dominant-baseline="alphabetic" fill-opacity="1">α</text><path fill="none" stroke="rgb(21,101,192)" paint-order="fill stroke markers" d=" M 449.5 812.5000000000025 L 674.5 812.5000000000025" stroke-opacity="0.8" stroke-linecap="round" stroke-linejoin="round" stroke-miterlimit="10" stroke-width="2.5"/><path fill="none" stroke="rgb(21,101,192)" paint-order="fill stroke markers" d=" M 674.5 812.5000000000025 L 856.528823734363 680.2483182341952" stroke-opacity="0.8" stroke-linecap="round" stroke-linejoin="round" stroke-miterlimit="10" stroke-width="2.5"/><path fill="none" stroke="rgb(21,101,192)" paint-order="fill stroke markers" d=" M 856.528823734363 680.2483182341952 L 926.0576474687261 466.2606020677841" stroke-opacity="0.8" stroke-linecap="round" stroke-linejoin="round" stroke-miterlimit="10" stroke-width="2.5"/><path fill="none" stroke="rgb(21,101,192)" paint-order="fill stroke markers" d=" M 926.0576474687261 466.2606020677841 L 856.5288237343632 252.27288590137297" stroke-opacity="0.8" stroke-linecap="round" stroke-linejoin="round" stroke-miterlimit="10" stroke-width="2.5"/><path fill="none" stroke="rgb(21,101,192)" paint-order="fill stroke markers" d=" M 856.5288237343632 252.27288590137297 L 674.5 120.02120413556548" stroke-opacity="0.8" stroke-linecap="round" stroke-linejoin="round" stroke-miterlimit="10" stroke-width="2.5"/><path fill="none" stroke="rgb(21,101,192)" paint-order="fill stroke markers" d=" M 674.5 120.02120413556548 L 449.5000000000001 120.02120413556548" stroke-opacity="0.8" stroke-linecap="round" stroke-linejoin="round" stroke-miterlimit="10" stroke-width="2.5"/><path fill="none" stroke="rgb(21,101,192)" paint-order="fill stroke markers" d=" M 449.5000000000001 120.02120413556548 L 267.471176265637 252.27288590137283" stroke-opacity="0.8" stroke-linecap="round" stroke-linejoin="round" stroke-miterlimit="10" stroke-width="2.5"/><path fill="none" stroke="rgb(21,101,192)" paint-order="fill stroke markers" d=" M 267.471176265637 252.27288590137283 L 197.94235253127385 466.2606020677839" stroke-opacity="0.8" stroke-linecap="round" stroke-linejoin="round" stroke-miterlimit="10" stroke-width="2.5"/><path fill="none" stroke="rgb(21,101,192)" paint-order="fill stroke markers" d=" M 197.94235253127385 466.2606020677839 L 267.47117626563687 680.248318234195" stroke-opacity="0.8" stroke-linecap="round" stroke-linejoin="round" stroke-miterlimit="10" stroke-width="2.5"/><path fill="none" stroke="rgb(21,101,192)" paint-order="fill stroke markers" d=" M 267.47117626563687 680.248318234195 L 449.5 812.5000000000025" stroke-opacity="0.8" stroke-linecap="round" stroke-linejoin="round" stroke-miterlimit="10" stroke-width="2.5"/><path fill="none" stroke="rgb(97,97,97)" paint-order="fill stroke markers" d=" M 267.471176265637 252.27288590137283 L 856.528823734363 680.2483182341952" stroke-opacity="0.8" stroke-linejoin="round" stroke-miterlimit="10" stroke-width="2.5" stroke-dasharray="10.5,8"/><path fill="none" stroke="rgb(97,97,97)" paint-order="fill stroke markers" d=" M 856.5288237343632 252.27288590137297 L 267.47117626563687 680.248318234195" stroke-opacity="0.8" stroke-linejoin="round" stroke-miterlimit="10" stroke-width="2.5" stroke-dasharray="10.5,8"/><path fill="none" stroke="rgb(97,97,97)" paint-order="fill stroke markers" d=" M 197.94235253127385 466.2606020677839 L 926.0576474687261 466.2606020677841" stroke-opacity="0.8" stroke-linejoin="round" stroke-miterlimit="10" stroke-width="2.5" stroke-dasharray="10.5,8"/><path fill="none" stroke="rgb(97,97,97)" paint-order="fill stroke markers" d=" M 449.5000000000001 120.02120413556548 L 674.5 812.5000000000025" stroke-opacity="0.8" stroke-linejoin="round" stroke-miterlimit="10" stroke-width="2.5" stroke-dasharray="10.5,8"/><path fill="none" stroke="rgb(97,97,97)" paint-order="fill stroke markers" d=" M 674.5 120.02120413556548 L 449.5 812.5000000000025" stroke-opacity="0.8" stroke-linejoin="round" stroke-miterlimit="10" stroke-width="2.5" stroke-dasharray="10.5,8"/><path fill="none" stroke="rgb(97,97,97)" paint-order="fill stroke markers" d=" M 562 466.260602067784 L 449.5 812.5000000000025" stroke-opacity="0.8" stroke-linecap="round" stroke-linejoin="round" stroke-miterlimit="10" stroke-width="2.5"/><path fill="none" stroke="rgb(97,97,97)" paint-order="fill stroke markers" d=" M 562 466.260602067784 L 674.5 812.5000000000025" stroke-opacity="0.8" stroke-linecap="round" stroke-linejoin="round" stroke-miterlimit="10" stroke-width="2.5"/><path fill="rgb(21,101,192)" stroke="none" paint-order="stroke fill markers" d=" M 454.5 812.5000000000025 C 454.5 815.2614237491565 452.26142374915395 817.5000000000025 449.5 817.5000000000025 C 446.73857625084605 817.5000000000025 444.5 815.2614237491565 444.5 812.5000000000025 C 444.5 809.7385762508485 446.73857625084605 807.5000000000025 449.5 807.5000000000025 C 452.26142374915395 807.5000000000025 454.5 809.7385762508485 454.5 812.5000000000025 Z" fill-opacity="1"/><path fill="none" stroke="rgb(0,0,0)" paint-order="fill stroke markers" d=" M 454.5 812.5000000000025 C 454.5 815.2614237491565 452.26142374915395 817.5000000000025 449.5 817.5000000000025 C 446.73857625084605 817.5000000000025 444.5 815.2614237491565 444.5 812.5000000000025 C 444.5 809.7385762508485 446.73857625084605 807.5000000000025 449.5 807.5000000000025 C 452.26142374915395 807.5000000000025 454.5 809.7385762508485 454.5 812.5000000000025 Z" stroke-opacity="1" stroke-linecap="round" stroke-linejoin="round" stroke-miterlimit="10"/><text fill="rgb(21,101,192)" stroke="none" font-family="geogebra-sans-serif, sans-serif" font-size="16px" font-style="normal" font-weight="normal" text-decoration="normal" x="454" y="803" text-anchor="start" dominant-baseline="alphabetic" fill-opacity="1">A</text><text fill="none" stroke="rgb(255,255,255)" font-family="geogebra-sans-serif, sans-serif" font-size="16px" font-style="normal" font-weight="normal" text-decoration="normal" x="454" y="803" text-anchor="start" dominant-baseline="alphabetic" stroke-opacity="1" stroke-linejoin="bevel" stroke-miterlimit="10" stroke-width="3">A</text><text fill="rgb(21,101,192)" stroke="none" font-family="geogebra-sans-serif, sans-serif" font-size="16px" font-style="normal" font-weight="normal" text-decoration="normal" x="454" y="803" text-anchor="start" dominant-baseline="alphabetic" fill-opacity="1">A</text><path fill="rgb(21,101,192)" stroke="none" paint-order="stroke fill markers" d=" M 679.5 812.5000000000025 C 679.5 815.2614237491565 677.261423749154 817.5000000000025 674.5 817.5000000000025 C 671.738576250846 817.5000000000025 669.5 815.2614237491565 669.5 812.5000000000025 C 669.5 809.7385762508485 671.738576250846 807.5000000000025 674.5 807.5000000000025 C 677.261423749154 807.5000000000025 679.5 809.7385762508485 679.5 812.5000000000025 Z" fill-opacity="1"/><path fill="none" stroke="rgb(0,0,0)" paint-order="fill stroke markers" d=" M 679.5 812.5000000000025 C 679.5 815.2614237491565 677.261423749154 817.5000000000025 674.5 817.5000000000025 C 671.738576250846 817.5000000000025 669.5 815.2614237491565 669.5 812.5000000000025 C 669.5 809.7385762508485 671.738576250846 807.5000000000025 674.5 807.5000000000025 C 677.261423749154 807.5000000000025 679.5 809.7385762508485 679.5 812.5000000000025 Z" stroke-opacity="1" stroke-linecap="round" stroke-linejoin="round" stroke-miterlimit="10"/><text fill="rgb(21,101,192)" stroke="none" font-family="geogebra-sans-serif, sans-serif" font-size="16px" font-style="normal" font-weight="normal" text-decoration="normal" x="679" y="803" text-anchor="start" dominant-baseline="alphabetic" fill-opacity="1">B</text><text fill="none" stroke="rgb(255,255,255)" font-family="geogebra-sans-serif, sans-serif" font-size="16px" font-style="normal" font-weight="normal" text-decoration="normal" x="679" y="803" text-anchor="start" dominant-baseline="alphabetic" stroke-opacity="1" stroke-linejoin="bevel" stroke-miterlimit="10" stroke-width="3">B</text><text fill="rgb(21,101,192)" stroke="none" font-family="geogebra-sans-serif, sans-serif" font-size="16px" font-style="normal" font-weight="normal" text-decoration="normal" x="679" y="803" text-anchor="start" dominant-baseline="alphabetic" fill-opacity="1">B</text><path fill="rgb(97,97,97)" stroke="none" paint-order="stroke fill markers" d=" M 861.528823734363 680.2483182341952 C 861.528823734363 683.0097419833492 859.290247483517 685.2483182341952 856.528823734363 685.2483182341952 C 853.767399985209 685.2483182341952 851.528823734363 683.0097419833492 851.528823734363 680.2483182341952 C 851.528823734363 677.4868944850411 853.767399985209 675.2483182341952 856.528823734363 675.2483182341952 C 859.290247483517 675.2483182341952 861.528823734363 677.4868944850411 861.528823734363 680.2483182341952 Z" fill-opacity="1"/><path fill="none" stroke="rgb(0,0,0)" paint-order="fill stroke markers" d=" M 861.528823734363 680.2483182341952 C 861.528823734363 683.0097419833492 859.290247483517 685.2483182341952 856.528823734363 685.2483182341952 C 853.767399985209 685.2483182341952 851.528823734363 683.0097419833492 851.528823734363 680.2483182341952 C 851.528823734363 677.4868944850411 853.767399985209 675.2483182341952 856.528823734363 675.2483182341952 C 859.290247483517 675.2483182341952 861.528823734363 677.4868944850411 861.528823734363 680.2483182341952 Z" stroke-opacity="1" stroke-linecap="round" stroke-linejoin="round" stroke-miterlimit="10"/><text fill="rgb(97,97,97)" stroke="none" font-family="geogebra-sans-serif, sans-serif" font-size="16px" font-style="normal" font-weight="normal" text-decoration="normal" x="861" y="670" text-anchor="start" dominant-baseline="alphabetic" fill-opacity="1">C</text><text fill="none" stroke="rgb(255,255,255)" font-family="geogebra-sans-serif, sans-serif" font-size="16px" font-style="normal" font-weight="normal" text-decoration="normal" x="861" y="670" text-anchor="start" dominant-baseline="alphabetic" stroke-opacity="1" stroke-linejoin="bevel" stroke-miterlimit="10" stroke-width="3">C</text><text fill="rgb(97,97,97)" stroke="none" font-family="geogebra-sans-serif, sans-serif" font-size="16px" font-style="normal" font-weight="normal" text-decoration="normal" x="861" y="670" text-anchor="start" dominant-baseline="alphabetic" fill-opacity="1">C</text><path fill="rgb(97,97,97)" stroke="none" paint-order="stroke fill markers" d=" M 931.0576474687261 466.2606020677841 C 931.0576474687261 469.022025816938 928.8190712178802 471.2606020677841 926.0576474687261 471.2606020677841 C 923.2962237195721 471.2606020677841 921.0576474687261 469.022025816938 921.0576474687261 466.2606020677841 C 921.0576474687261 463.49917831863013 923.2962237195721 461.2606020677841 926.0576474687261 461.2606020677841 C 928.8190712178802 461.2606020677841 931.0576474687261 463.49917831863013 931.0576474687261 466.2606020677841 Z" fill-opacity="1"/><path fill="none" stroke="rgb(0,0,0)" paint-order="fill stroke markers" d=" M 931.0576474687261 466.2606020677841 C 931.0576474687261 469.022025816938 928.8190712178802 471.2606020677841 926.0576474687261 471.2606020677841 C 923.2962237195721 471.2606020677841 921.0576474687261 469.022025816938 921.0576474687261 466.2606020677841 C 921.0576474687261 463.49917831863013 923.2962237195721 461.2606020677841 926.0576474687261 461.2606020677841 C 928.8190712178802 461.2606020677841 931.0576474687261 463.49917831863013 931.0576474687261 466.2606020677841 Z" stroke-opacity="1" stroke-linecap="round" stroke-linejoin="round" stroke-miterlimit="10"/><text fill="rgb(97,97,97)" stroke="none" font-family="geogebra-sans-serif, sans-serif" font-size="16px" font-style="normal" font-weight="normal" text-decoration="normal" x="930" y="456" text-anchor="start" dominant-baseline="alphabetic" fill-opacity="1">D</text><text fill="none" stroke="rgb(255,255,255)" font-family="geogebra-sans-serif, sans-serif" font-size="16px" font-style="normal" font-weight="normal" text-decoration="normal" x="930" y="456" text-anchor="start" dominant-baseline="alphabetic" stroke-opacity="1" stroke-linejoin="bevel" stroke-miterlimit="10" stroke-width="3">D</text><text fill="rgb(97,97,97)" stroke="none" font-family="geogebra-sans-serif, sans-serif" font-size="16px" font-style="normal" font-weight="normal" text-decoration="normal" x="930" y="456" text-anchor="start" dominant-baseline="alphabetic" fill-opacity="1">D</text><path fill="rgb(97,97,97)" stroke="none" paint-order="stroke fill markers" d=" M 861.5288237343632 252.27288590137297 C 861.5288237343632 255.03430965052695 859.2902474835172 257.272885901373 856.5288237343632 257.272885901373 C 853.7673999852092 257.272885901373 851.5288237343632 255.03430965052695 851.5288237343632 252.27288590137297 C 851.5288237343632 249.511462152219 853.7673999852092 247.27288590137297 856.5288237343632 247.27288590137297 C 859.2902474835172 247.27288590137297 861.5288237343632 249.511462152219 861.5288237343632 252.27288590137297 Z" fill-opacity="1"/><path fill="none" stroke="rgb(0,0,0)" paint-order="fill stroke markers" d=" M 861.5288237343632 252.27288590137297 C 861.5288237343632 255.03430965052695 859.2902474835172 257.272885901373 856.5288237343632 257.272885901373 C 853.7673999852092 257.272885901373 851.5288237343632 255.03430965052695 851.5288237343632 252.27288590137297 C 851.5288237343632 249.511462152219 853.7673999852092 247.27288590137297 856.5288237343632 247.27288590137297 C 859.2902474835172 247.27288590137297 861.5288237343632 249.511462152219 861.5288237343632 252.27288590137297 Z" stroke-opacity="1" stroke-linecap="round" stroke-linejoin="round" stroke-miterlimit="10"/><text fill="rgb(97,97,97)" stroke="none" font-family="geogebra-sans-serif, sans-serif" font-size="16px" font-style="normal" font-weight="normal" text-decoration="normal" x="861" y="242" text-anchor="start" dominant-baseline="alphabetic" fill-opacity="1">E</text><text fill="none" stroke="rgb(255,255,255)" font-family="geogebra-sans-serif, sans-serif" font-size="16px" font-style="normal" font-weight="normal" text-decoration="normal" x="861" y="242" text-anchor="start" dominant-baseline="alphabetic" stroke-opacity="1" stroke-linejoin="bevel" stroke-miterlimit="10" stroke-width="3">E</text><text fill="rgb(97,97,97)" stroke="none" font-family="geogebra-sans-serif, sans-serif" font-size="16px" font-style="normal" font-weight="normal" text-decoration="normal" x="861" y="242" text-anchor="start" dominant-baseline="alphabetic" fill-opacity="1">E</text><path fill="rgb(97,97,97)" stroke="none" paint-order="stroke fill markers" d=" M 679.5 120.02120413556548 C 679.5 122.78262788471945 677.261423749154 125.02120413556548 674.5 125.02120413556548 C 671.738576250846 125.02120413556548 669.5 122.78262788471945 669.5 120.02120413556548 C 669.5 117.25978038641152 671.738576250846 115.02120413556548 674.5 115.02120413556548 C 677.261423749154 115.02120413556548 679.5 117.25978038641152 679.5 120.02120413556548 Z" fill-opacity="1"/><path fill="none" stroke="rgb(0,0,0)" paint-order="fill stroke markers" d=" M 679.5 120.02120413556548 C 679.5 122.78262788471945 677.261423749154 125.02120413556548 674.5 125.02120413556548 C 671.738576250846 125.02120413556548 669.5 122.78262788471945 669.5 120.02120413556548 C 669.5 117.25978038641152 671.738576250846 115.02120413556548 674.5 115.02120413556548 C 677.261423749154 115.02120413556548 679.5 117.25978038641152 679.5 120.02120413556548 Z" stroke-opacity="1" stroke-linecap="round" stroke-linejoin="round" stroke-miterlimit="10"/><text fill="rgb(97,97,97)" stroke="none" font-family="geogebra-sans-serif, sans-serif" font-size="16px" font-style="normal" font-weight="normal" text-decoration="normal" x="679" y="110" text-anchor="start" dominant-baseline="alphabetic" fill-opacity="1">F</text><text fill="none" stroke="rgb(255,255,255)" font-family="geogebra-sans-serif, sans-serif" font-size="16px" font-style="normal" font-weight="normal" text-decoration="normal" x="679" y="110" text-anchor="start" dominant-baseline="alphabetic" stroke-opacity="1" stroke-linejoin="bevel" stroke-miterlimit="10" stroke-width="3">F</text><text fill="rgb(97,97,97)" stroke="none" font-family="geogebra-sans-serif, sans-serif" font-size="16px" font-style="normal" font-weight="normal" text-decoration="normal" x="679" y="110" text-anchor="start" dominant-baseline="alphabetic" fill-opacity="1">F</text><path fill="rgb(97,97,97)" stroke="none" paint-order="stroke fill markers" d=" M 454.5000000000001 120.02120413556548 C 454.5000000000001 122.78262788471945 452.26142374915406 125.02120413556548 449.5000000000001 125.02120413556548 C 446.73857625084617 125.02120413556548 444.5000000000001 122.78262788471945 444.5000000000001 120.02120413556548 C 444.5000000000001 117.25978038641152 446.73857625084617 115.02120413556548 449.5000000000001 115.02120413556548 C 452.26142374915406 115.02120413556548 454.5000000000001 117.25978038641152 454.5000000000001 120.02120413556548 Z" fill-opacity="1"/><path fill="none" stroke="rgb(0,0,0)" paint-order="fill stroke markers" d=" M 454.5000000000001 120.02120413556548 C 454.5000000000001 122.78262788471945 452.26142374915406 125.02120413556548 449.5000000000001 125.02120413556548 C 446.73857625084617 125.02120413556548 444.5000000000001 122.78262788471945 444.5000000000001 120.02120413556548 C 444.5000000000001 117.25978038641152 446.73857625084617 115.02120413556548 449.5000000000001 115.02120413556548 C 452.26142374915406 115.02120413556548 454.5000000000001 117.25978038641152 454.5000000000001 120.02120413556548 Z" stroke-opacity="1" stroke-linecap="round" stroke-linejoin="round" stroke-miterlimit="10"/><text fill="rgb(97,97,97)" stroke="none" font-family="geogebra-sans-serif, sans-serif" font-size="16px" font-style="normal" font-weight="normal" text-decoration="normal" x="454" y="110" text-anchor="start" dominant-baseline="alphabetic" fill-opacity="1">G</text><text fill="none" stroke="rgb(255,255,255)" font-family="geogebra-sans-serif, sans-serif" font-size="16px" font-style="normal" font-weight="normal" text-decoration="normal" x="454" y="110" text-anchor="start" dominant-baseline="alphabetic" stroke-opacity="1" stroke-linejoin="bevel" stroke-miterlimit="10" stroke-width="3">G</text><text fill="rgb(97,97,97)" stroke="none" font-family="geogebra-sans-serif, sans-serif" font-size="16px" font-style="normal" font-weight="normal" text-decoration="normal" x="454" y="110" text-anchor="start" dominant-baseline="alphabetic" fill-opacity="1">G</text><path fill="rgb(97,97,97)" stroke="none" paint-order="stroke fill markers" d=" M 272.471176265637 252.27288590137283 C 272.471176265637 255.0343096505268 270.23260001479093 257.27288590137283 267.471176265637 257.27288590137283 C 264.70975251648304 257.27288590137283 262.471176265637 255.0343096505268 262.471176265637 252.27288590137283 C 262.471176265637 249.51146215221885 264.70975251648304 247.27288590137283 267.471176265637 247.27288590137283 C 270.23260001479093 247.27288590137283 272.471176265637 249.51146215221885 272.471176265637 252.27288590137283 Z" fill-opacity="1"/><path fill="none" stroke="rgb(0,0,0)" paint-order="fill stroke markers" d=" M 272.471176265637 252.27288590137283 C 272.471176265637 255.0343096505268 270.23260001479093 257.27288590137283 267.471176265637 257.27288590137283 C 264.70975251648304 257.27288590137283 262.471176265637 255.0343096505268 262.471176265637 252.27288590137283 C 262.471176265637 249.51146215221885 264.70975251648304 247.27288590137283 267.471176265637 247.27288590137283 C 270.23260001479093 247.27288590137283 272.471176265637 249.51146215221885 272.471176265637 252.27288590137283 Z" stroke-opacity="1" stroke-linecap="round" stroke-linejoin="round" stroke-miterlimit="10"/><text fill="rgb(97,97,97)" stroke="none" font-family="geogebra-sans-serif, sans-serif" font-size="16px" font-style="normal" font-weight="normal" text-decoration="normal" x="271" y="242" text-anchor="start" dominant-baseline="alphabetic" fill-opacity="1">H</text><text fill="none" stroke="rgb(255,255,255)" font-family="geogebra-sans-serif, sans-serif" font-size="16px" font-style="normal" font-weight="normal" text-decoration="normal" x="271" y="242" text-anchor="start" dominant-baseline="alphabetic" stroke-opacity="1" stroke-linejoin="bevel" stroke-miterlimit="10" stroke-width="3">H</text><text fill="rgb(97,97,97)" stroke="none" font-family="geogebra-sans-serif, sans-serif" font-size="16px" font-style="normal" font-weight="normal" text-decoration="normal" x="271" y="242" text-anchor="start" dominant-baseline="alphabetic" fill-opacity="1">H</text><path fill="rgb(97,97,97)" stroke="none" paint-order="stroke fill markers" d=" M 202.94235253127385 466.2606020677839 C 202.94235253127385 469.02202581693786 200.70377628042783 471.2606020677839 197.94235253127385 471.2606020677839 C 195.18092878211988 471.2606020677839 192.94235253127385 469.02202581693786 192.94235253127385 466.2606020677839 C 192.94235253127385 463.49917831862996 195.18092878211988 461.2606020677839 197.94235253127385 461.2606020677839 C 200.70377628042783 461.2606020677839 202.94235253127385 463.49917831862996 202.94235253127385 466.2606020677839 Z" fill-opacity="1"/><path fill="none" stroke="rgb(0,0,0)" paint-order="fill stroke markers" d=" M 202.94235253127385 466.2606020677839 C 202.94235253127385 469.02202581693786 200.70377628042783 471.2606020677839 197.94235253127385 471.2606020677839 C 195.18092878211988 471.2606020677839 192.94235253127385 469.02202581693786 192.94235253127385 466.2606020677839 C 192.94235253127385 463.49917831862996 195.18092878211988 461.2606020677839 197.94235253127385 461.2606020677839 C 200.70377628042783 461.2606020677839 202.94235253127385 463.49917831862996 202.94235253127385 466.2606020677839 Z" stroke-opacity="1" stroke-linecap="round" stroke-linejoin="round" stroke-miterlimit="10"/><text fill="rgb(97,97,97)" stroke="none" font-family="geogebra-sans-serif, sans-serif" font-size="16px" font-style="normal" font-weight="normal" text-decoration="normal" x="202" y="456" text-anchor="start" dominant-baseline="alphabetic" fill-opacity="1">I</text><text fill="none" stroke="rgb(255,255,255)" font-family="geogebra-sans-serif, sans-serif" font-size="16px" font-style="normal" font-weight="normal" text-decoration="normal" x="202" y="456" text-anchor="start" dominant-baseline="alphabetic" stroke-opacity="1" stroke-linejoin="bevel" stroke-miterlimit="10" stroke-width="3">I</text><text fill="rgb(97,97,97)" stroke="none" font-family="geogebra-sans-serif, sans-serif" font-size="16px" font-style="normal" font-weight="normal" text-decoration="normal" x="202" y="456" text-anchor="start" dominant-baseline="alphabetic" fill-opacity="1">I</text><path fill="rgb(97,97,97)" stroke="none" paint-order="stroke fill markers" d=" M 272.47117626563687 680.248318234195 C 272.47117626563687 683.009741983349 270.2326000147908 685.248318234195 267.47117626563687 685.248318234195 C 264.7097525164829 685.248318234195 262.47117626563687 683.009741983349 262.47117626563687 680.248318234195 C 262.47117626563687 677.486894485041 264.7097525164829 675.248318234195 267.47117626563687 675.248318234195 C 270.2326000147908 675.248318234195 272.47117626563687 677.486894485041 272.47117626563687 680.248318234195 Z" fill-opacity="1"/><path fill="none" stroke="rgb(0,0,0)" paint-order="fill stroke markers" d=" M 272.47117626563687 680.248318234195 C 272.47117626563687 683.009741983349 270.2326000147908 685.248318234195 267.47117626563687 685.248318234195 C 264.7097525164829 685.248318234195 262.47117626563687 683.009741983349 262.47117626563687 680.248318234195 C 262.47117626563687 677.486894485041 264.7097525164829 675.248318234195 267.47117626563687 675.248318234195 C 270.2326000147908 675.248318234195 272.47117626563687 677.486894485041 272.47117626563687 680.248318234195 Z" stroke-opacity="1" stroke-linecap="round" stroke-linejoin="round" stroke-miterlimit="10"/><text fill="rgb(97,97,97)" stroke="none" font-family="geogebra-sans-serif, sans-serif" font-size="16px" font-style="normal" font-weight="normal" text-decoration="normal" x="271" y="670" text-anchor="start" dominant-baseline="alphabetic" fill-opacity="1">J</text><text fill="none" stroke="rgb(255,255,255)" font-family="geogebra-sans-serif, sans-serif" font-size="16px" font-style="normal" font-weight="normal" text-decoration="normal" x="271" y="670" text-anchor="start" dominant-baseline="alphabetic" stroke-opacity="1" stroke-linejoin="bevel" stroke-miterlimit="10" stroke-width="3">J</text><text fill="rgb(97,97,97)" stroke="none" font-family="geogebra-sans-serif, sans-serif" font-size="16px" font-style="normal" font-weight="normal" text-decoration="normal" x="271" y="670" text-anchor="start" dominant-baseline="alphabetic" fill-opacity="1">J</text><path fill="rgb(97,97,97)" stroke="none" paint-order="stroke fill markers" d=" M 566 466.260602067784 C 566 468.4697410671072 564.2091389993232 470.260602067784 562 470.260602067784 C 559.7908610006768 470.260602067784 558 468.4697410671072 558 466.260602067784 C 558 464.05146306846086 559.7908610006768 462.260602067784 562 462.260602067784 C 564.2091389993232 462.260602067784 566 464.05146306846086 566 466.260602067784 Z" fill-opacity="1"/><path fill="none" stroke="rgb(0,0,0)" paint-order="fill stroke markers" d=" M 566 466.260602067784 C 566 468.4697410671072 564.2091389993232 470.260602067784 562 470.260602067784 C 559.7908610006768 470.260602067784 558 468.4697410671072 558 466.260602067784 C 558 464.05146306846086 559.7908610006768 462.260602067784 562 462.260602067784 C 564.2091389993232 462.260602067784 566 464.05146306846086 566 466.260602067784 Z" stroke-opacity="1" stroke-linecap="round" stroke-linejoin="round" stroke-miterlimit="10"/><text fill="rgb(97,97,97)" stroke="none" font-family="geogebra-sans-serif, sans-serif" font-size="16px" font-style="normal" font-weight="normal" text-decoration="normal" x="566" y="458" text-anchor="start" dominant-baseline="alphabetic" fill-opacity="1">K</text><text fill="none" stroke="rgb(255,255,255)" font-family="geogebra-sans-serif, sans-serif" font-size="16px" font-style="normal" font-weight="normal" text-decoration="normal" x="566" y="458" text-anchor="start" dominant-baseline="alphabetic" stroke-opacity="1" stroke-linejoin="bevel" stroke-miterlimit="10" stroke-width="3">K</text><text fill="rgb(97,97,97)" stroke="none" font-family="geogebra-sans-serif, sans-serif" font-size="16px" font-style="normal" font-weight="normal" text-decoration="normal" x="566" y="458" text-anchor="start" dominant-baseline="alphabetic" fill-opacity="1">K</text></g></g></svg>