<svg version="1.1" xmlns="http://www.w3.org/2000/svg" xmlns:xlink="http://www.w3.org/1999/xlink" width="630" height="590"><defs><clipPath id="cyqCbMJesxnl"><path fill="none" stroke="none" d=" M 0 0 L 630 0 L 630 590 L 0 590 L 0 0 Z"/></clipPath></defs><g transform="scale(1,1)" clip-path="url(#cyqCbMJesxnl)"><g><rect fill="rgb(255,255,255)" stroke="none" x="0" y="0" width="630" height="590" fill-opacity="1"/><path fill="rgb(21,101,192)" stroke="none" paint-order="stroke fill markers" fill-rule="evenodd" d=" M 155.82777777778503 134.6666666666656 L 155.82777777778503 464.6666666666663 L 485.8277777777887 464.6666666666663 L 485.8277777777887 134.6666666666656 Z" fill-opacity="0.09803921568627451"/><path fill="none" stroke="rgb(21,101,192)" paint-order="fill stroke markers" d=" M 155.82777777778503 134.6666666666656 L 155.82777777778503 464.6666666666663" stroke-opacity="0.8" stroke-linecap="round" stroke-linejoin="round" stroke-miterlimit="10" stroke-width="2.5"/><text fill="rgb(21,101,192)" stroke="none" font-family="geogebra-sans-serif, sans-serif" font-size="16px" font-style="normal" font-weight="normal" text-decoration="normal" x="139" y="299" text-anchor="start" dominant-baseline="alphabetic" fill-opacity="1">1</text><text fill="none" stroke="rgb(255,255,255)" font-family="geogebra-sans-serif, sans-serif" font-size="16px" font-style="normal" font-weight="normal" text-decoration="normal" x="139" y="299" text-anchor="start" dominant-baseline="alphabetic" stroke-opacity="1" stroke-linejoin="bevel" stroke-miterlimit="10" stroke-width="3">1</text><text fill="rgb(21,101,192)" stroke="none" font-family="geogebra-sans-serif, sans-serif" font-size="16px" font-style="normal" font-weight="normal" text-decoration="normal" x="139" y="299" text-anchor="start" dominant-baseline="alphabetic" fill-opacity="1">1</text><path fill="none" stroke="rgb(21,101,192)" paint-order="fill stroke markers" d=" M 155.82777777778503 464.6666666666663 L 485.8277777777887 464.6666666666663" stroke-opacity="0.8" stroke-linecap="round" stroke-linejoin="round" stroke-miterlimit="10" stroke-width="2.5"/><text fill="rgb(21,101,192)" stroke="none" font-family="geogebra-sans-serif, sans-serif" font-size="16px" font-style="normal" font-weight="normal" text-decoration="normal" x="320" y="480" text-anchor="start" dominant-baseline="alphabetic" fill-opacity="1">1</text><text fill="none" stroke="rgb(255,255,255)" font-family="geogebra-sans-serif, sans-serif" font-size="16px" font-style="normal" font-weight="normal" text-decoration="normal" x="320" y="480" text-anchor="start" dominant-baseline="alphabetic" stroke-opacity="1" stroke-linejoin="bevel" stroke-miterlimit="10" stroke-width="3">1</text><text fill="rgb(21,101,192)" stroke="none" font-family="geogebra-sans-serif, sans-serif" font-size="16px" font-style="normal" font-weight="normal" text-decoration="normal" x="320" y="480" text-anchor="start" dominant-baseline="alphabetic" fill-opacity="1">1</text><path fill="none" stroke="rgb(21,101,192)" paint-order="fill stroke markers" d=" M 485.8277777777887 464.6666666666663 L 485.8277777777887 134.6666666666656" stroke-opacity="0.8" stroke-linecap="round" stroke-linejoin="round" stroke-miterlimit="10" stroke-width="2.5"/><path fill="none" stroke="rgb(21,101,192)" paint-order="fill stroke markers" d=" M 485.8277777777887 134.6666666666656 L 155.82777777778503 134.6666666666656" stroke-opacity="0.8" stroke-linecap="round" stroke-linejoin="round" stroke-miterlimit="10" stroke-width="2.5"/><path fill="none" stroke="rgb(97,97,97)" paint-order="fill stroke markers" d=" M 155.82777777778503 134.6666666666656 L 485.8277777777887 464.6666666666663" stroke-opacity="0.8" stroke-linecap="round" stroke-linejoin="round" stroke-miterlimit="10" stroke-width="2.5"/><path fill="rgb(21,101,192)" stroke="none" paint-order="stroke fill markers" d=" M 160.82777777778503 134.6666666666656 C 160.82777777778503 137.42809041581958 158.589201526939 139.6666666666656 155.82777777778503 139.6666666666656 C 153.06635402863105 139.6666666666656 150.82777777778503 137.42809041581958 150.82777777778503 134.6666666666656 C 150.82777777778503 131.90524291751163 153.06635402863105 129.6666666666656 155.82777777778503 129.6666666666656 C 158.589201526939 129.6666666666656 160.82777777778503 131.90524291751163 160.82777777778503 134.6666666666656 Z" fill-opacity="1"/><path fill="none" stroke="rgb(0,0,0)" paint-order="fill stroke markers" d=" M 160.82777777778503 134.6666666666656 C 160.82777777778503 137.42809041581958 158.589201526939 139.6666666666656 155.82777777778503 139.6666666666656 C 153.06635402863105 139.6666666666656 150.82777777778503 137.42809041581958 150.82777777778503 134.6666666666656 C 150.82777777778503 131.90524291751163 153.06635402863105 129.6666666666656 155.82777777778503 129.6666666666656 C 158.589201526939 129.6666666666656 160.82777777778503 131.90524291751163 160.82777777778503 134.6666666666656 Z" stroke-opacity="1" stroke-linecap="round" stroke-linejoin="round" stroke-miterlimit="10"/><text fill="rgb(21,101,192)" stroke="none" font-family="geogebra-sans-serif, sans-serif" font-size="16px" font-style="normal" font-weight="normal" text-decoration="normal" x="160" y="125" text-anchor="start" dominant-baseline="alphabetic" fill-opacity="1">A</text><text fill="none" stroke="rgb(255,255,255)" font-family="geogebra-sans-serif, sans-serif" font-size="16px" font-style="normal" font-weight="normal" text-decoration="normal" x="160" y="125" text-anchor="start" dominant-baseline="alphabetic" stroke-opacity="1" stroke-linejoin="bevel" stroke-miterlimit="10" stroke-width="3">A</text><text fill="rgb(21,101,192)" stroke="none" font-family="geogebra-sans-serif, sans-serif" font-size="16px" font-style="normal" font-weight="normal" text-decoration="normal" x="160" y="125" text-anchor="start" dominant-baseline="alphabetic" fill-opacity="1">A</text><path fill="rgb(21,101,192)" stroke="none" paint-order="stroke fill markers" d=" M 160.82777777778503 464.6666666666663 C 160.82777777778503 467.42809041582024 158.589201526939 469.6666666666663 155.82777777778503 469.6666666666663 C 153.06635402863105 469.6666666666663 150.82777777778503 467.42809041582024 150.82777777778503 464.6666666666663 C 150.82777777778503 461.90524291751234 153.06635402863105 459.6666666666663 155.82777777778503 459.6666666666663 C 158.589201526939 459.6666666666663 160.82777777778503 461.90524291751234 160.82777777778503 464.6666666666663 Z" fill-opacity="1"/><path fill="none" stroke="rgb(0,0,0)" paint-order="fill stroke markers" d=" M 160.82777777778503 464.6666666666663 C 160.82777777778503 467.42809041582024 158.589201526939 469.6666666666663 155.82777777778503 469.6666666666663 C 153.06635402863105 469.6666666666663 150.82777777778503 467.42809041582024 150.82777777778503 464.6666666666663 C 150.82777777778503 461.90524291751234 153.06635402863105 459.6666666666663 155.82777777778503 459.6666666666663 C 158.589201526939 459.6666666666663 160.82777777778503 461.90524291751234 160.82777777778503 464.6666666666663 Z" stroke-opacity="1" stroke-linecap="round" stroke-linejoin="round" stroke-miterlimit="10"/><text fill="rgb(21,101,192)" stroke="none" font-family="geogebra-sans-serif, sans-serif" font-size="16px" font-style="normal" font-weight="normal" text-decoration="normal" x="160" y="455" text-anchor="start" dominant-baseline="alphabetic" fill-opacity="1">B</text><text fill="none" stroke="rgb(255,255,255)" font-family="geogebra-sans-serif, sans-serif" font-size="16px" font-style="normal" font-weight="normal" text-decoration="normal" x="160" y="455" text-anchor="start" dominant-baseline="alphabetic" stroke-opacity="1" stroke-linejoin="bevel" stroke-miterlimit="10" stroke-width="3">B</text><text fill="rgb(21,101,192)" stroke="none" font-family="geogebra-sans-serif, sans-serif" font-size="16px" font-style="normal" font-weight="normal" text-decoration="normal" x="160" y="455" text-anchor="start" dominant-baseline="alphabetic" fill-opacity="1">B</text><path fill="rgb(21,101,192)" stroke="none" paint-order="stroke fill markers" d=" M 490.8277777777887 464.6666666666663 C 490.8277777777887 467.42809041582024 488.58920152694265 469.6666666666663 485.8277777777887 469.6666666666663 C 483.06635402863475 469.6666666666663 480.8277777777887 467.42809041582024 480.8277777777887 464.6666666666663 C 480.8277777777887 461.90524291751234 483.06635402863475 459.6666666666663 485.8277777777887 459.6666666666663 C 488.58920152694265 459.6666666666663 490.8277777777887 461.90524291751234 490.8277777777887 464.6666666666663 Z" fill-opacity="1"/><path fill="none" stroke="rgb(0,0,0)" paint-order="fill stroke markers" d=" M 490.8277777777887 464.6666666666663 C 490.8277777777887 467.42809041582024 488.58920152694265 469.6666666666663 485.8277777777887 469.6666666666663 C 483.06635402863475 469.6666666666663 480.8277777777887 467.42809041582024 480.8277777777887 464.6666666666663 C 480.8277777777887 461.90524291751234 483.06635402863475 459.6666666666663 485.8277777777887 459.6666666666663 C 488.58920152694265 459.6666666666663 490.8277777777887 461.90524291751234 490.8277777777887 464.6666666666663 Z" stroke-opacity="1" stroke-linecap="round" stroke-linejoin="round" stroke-miterlimit="10"/><text fill="rgb(21,101,192)" stroke="none" font-family="geogebra-sans-serif, sans-serif" font-size="16px" font-style="normal" font-weight="normal" text-decoration="normal" x="490" y="455" text-anchor="start" dominant-baseline="alphabetic" fill-opacity="1">C</text><text fill="none" stroke="rgb(255,255,255)" font-family="geogebra-sans-serif, sans-serif" font-size="16px" font-style="normal" font-weight="normal" text-decoration="normal" x="490" y="455" text-anchor="start" dominant-baseline="alphabetic" stroke-opacity="1" stroke-linejoin="bevel" stroke-miterlimit="10" stroke-width="3">C</text><text fill="rgb(21,101,192)" stroke="none" font-family="geogebra-sans-serif, sans-serif" font-size="16px" font-style="normal" font-weight="normal" text-decoration="normal" x="490" y="455" text-anchor="start" dominant-baseline="alphabetic" fill-opacity="1">C</text><path fill="rgb(21,101,192)" stroke="none" paint-order="stroke fill markers" d=" M 490.8277777777887 134.6666666666656 C 490.8277777777887 137.42809041581958 488.58920152694265 139.6666666666656 485.8277777777887 139.6666666666656 C 483.06635402863475 139.6666666666656 480.8277777777887 137.42809041581958 480.8277777777887 134.6666666666656 C 480.8277777777887 131.90524291751163 483.06635402863475 129.6666666666656 485.8277777777887 129.6666666666656 C 488.58920152694265 129.6666666666656 490.8277777777887 131.90524291751163 490.8277777777887 134.6666666666656 Z" fill-opacity="1"/><path fill="none" stroke="rgb(0,0,0)" paint-order="fill stroke markers" d=" M 490.8277777777887 134.6666666666656 C 490.8277777777887 137.42809041581958 488.58920152694265 139.6666666666656 485.8277777777887 139.6666666666656 C 483.06635402863475 139.6666666666656 480.8277777777887 137.42809041581958 480.8277777777887 134.6666666666656 C 480.8277777777887 131.90524291751163 483.06635402863475 129.6666666666656 485.8277777777887 129.6666666666656 C 488.58920152694265 129.6666666666656 490.8277777777887 131.90524291751163 490.8277777777887 134.6666666666656 Z" stroke-opacity="1" stroke-linecap="round" stroke-linejoin="round" stroke-miterlimit="10"/><text fill="rgb(21,101,192)" stroke="none" font-family="geogebra-sans-serif, sans-serif" font-size="16px" font-style="normal" font-weight="normal" text-decoration="normal" x="490" y="125" text-anchor="start" dominant-baseline="alphabetic" fill-opacity="1">D</text><text fill="none" stroke="rgb(255,255,255)" font-family="geogebra-sans-serif, sans-serif" font-size="16px" font-style="normal" font-weight="normal" text-decoration="normal" x="490" y="125" text-anchor="start" dominant-baseline="alphabetic" stroke-opacity="1" stroke-linejoin="bevel" stroke-miterlimit="10" stroke-width="3">D</text><text fill="rgb(21,101,192)" stroke="none" font-family="geogebra-sans-serif, sans-serif" font-size="16px" font-style="normal" font-weight="normal" text-decoration="normal" x="490" y="125" text-anchor="start" dominant-baseline="alphabetic" fill-opacity="1">D</text><g transform="scale(19,19)"><g transform="translate(14.210526315789474,16.711577947368422)"><path fill="rgb(0,0,0)" stroke="none" paint-order="stroke fill markers" d=" M 0.389 0.855 L 0.812 -0.021 Q 0.8250000000000001 -0.038 0.833 -0.04 Q 0.85 -0.04 0.853 -0.02 Q 0.853 -0.016 0.847 -0.003 L 0.391 0.9410000000000001 Q 0.383 0.9570000000000001 0.375 0.9590000000000001 Q 0.372 0.96 0.366 0.96 Q 0.354 0.96 0.35000000000000003 0.9510000000000001 L 0.34700000000000003 0.9450000000000001 L 0.149 0.51 L 0.097 0.549 Q 0.088 0.557 0.083 0.557 Q 0.073 0.557 0.073 0.546 Q 0.073 0.542 0.085 0.532 L 0.184 0.457 Q 0.193 0.449 0.198 0.449 Q 0.20400000000000001 0.449 0.211 0.463 L 0.389 0.855 Z"/></g><rect fill="rgb(0,0,0)" stroke="none" x="15.043526315789475" y="16.67157894736842" width="0.5555555555555556" height="0.04"/><g transform="translate(15.043526315789475,17.587453447368418)"><path fill="rgb(0,0,0)" stroke="none" paint-order="stroke fill markers" d=" M 0.449 -0.17400000000000002 L 0.449 -0.17400000000000002 L 0.421 0 L 0.05 0 Q 0.05 -0.025 0.056 -0.032 L 0.061 -0.037 L 0.253 -0.251 Q 0.358 -0.369 0.358 -0.47200000000000003 Q 0.358 -0.561 0.304 -0.607 L 0.303 -0.608 L 0.302 -0.608 Q 0.27 -0.635 0.224 -0.635 Q 0.152 -0.635 0.109 -0.5730000000000001 Q 0.097 -0.555 0.089 -0.533 Q 0.092 -0.534 0.10200000000000001 -0.534 Q 0.14200000000000002 -0.534 0.153 -0.498 L 0.153 -0.497 Q 0.155 -0.49 0.155 -0.482 Q 0.155 -0.442 0.117 -0.431 Q 0.109 -0.429 0.10300000000000001 -0.429 Q 0.066 -0.429 0.054 -0.46 Q 0.05 -0.47100000000000003 0.05 -0.485 Q 0.05 -0.562 0.109 -0.617 Q 0.162 -0.666 0.23700000000000002 -0.666 Q 0.34700000000000003 -0.666 0.40800000000000003 -0.592 Q 0.443 -0.549 0.448 -0.49 Q 0.449 -0.481 0.449 -0.47200000000000003 Q 0.449 -0.399 0.394 -0.333 Q 0.365 -0.299 0.304 -0.243 L 0.243 -0.189 L 0.233 -0.18 L 0.127 -0.077 L 0.307 -0.077 Q 0.395 -0.077 0.402 -0.085 Q 0.41200000000000003 -0.099 0.424 -0.17400000000000002 L 0.449 -0.17400000000000002 Z"/></g></g><path fill="none" stroke="rgb(192,192,192)" paint-order="fill stroke markers" d=" M 263 309 L 304 309 L 304 344 L 263 344 L 263 309 Z" stroke-opacity="1" stroke-linecap="square" stroke-miterlimit="10" stroke-width="2"/></g></g></svg>