<svg version="1.1" xmlns="http://www.w3.org/2000/svg" xmlns:xlink="http://www.w3.org/1999/xlink" width="1124" height="950"><defs><clipPath id="eHXaiPKrnadd"><path fill="none" stroke="none" d=" M 0 0 L 1124 0 L 1124 950 L 0 950 L 0 0 Z"/></clipPath></defs><g transform="scale(1,1)" clip-path="url(#eHXaiPKrnadd)"><g><rect fill="rgb(255,255,255)" stroke="none" x="0" y="0" width="1124" height="950" fill-opacity="1"/><path fill="rgb(0,0,0)" stroke="none" paint-order="stroke fill markers" d=" M 534.1482558025054 285.75633822587736 C 554.2325963425602 292.2821360531903 575.8673141374401 292.2821360531903 595.951654677495 285.75633822587736 L 565.0499552400001 190.6506865963613 Z" fill-opacity="0.09803921568627451"/><path fill="none" stroke="rgb(0,0,0)" paint-order="fill stroke markers" d=" M 534.1482558025054 285.75633822587736 C 554.2325963425602 292.2821360531903 575.8673141374401 292.2821360531903 595.951654677495 285.75633822587736 L 565.0499552400001 190.6506865963613 Z" stroke-opacity="0.6" stroke-linecap="round" stroke-linejoin="round" stroke-miterlimit="10" stroke-width="2"/><text fill="rgb(0,0,0)" stroke="none" font-family="geogebra-sans-serif, sans-serif" font-size="16px" font-style="normal" font-weight="normal" text-decoration="normal" x="562" y="254" text-anchor="start" dominant-baseline="alphabetic" fill-opacity="1">α</text><text fill="none" stroke="rgb(255,255,255)" font-family="geogebra-sans-serif, sans-serif" font-size="16px" font-style="normal" font-weight="normal" text-decoration="normal" x="562" y="254" text-anchor="start" dominant-baseline="alphabetic" stroke-opacity="1" stroke-linejoin="bevel" stroke-miterlimit="10" stroke-width="3">α</text><text fill="rgb(0,0,0)" stroke="none" font-family="geogebra-sans-serif, sans-serif" font-size="16px" font-style="normal" font-weight="normal" text-decoration="normal" x="562" y="254" text-anchor="start" dominant-baseline="alphabetic" fill-opacity="1">α</text><path fill="none" stroke="rgb(97,97,97)" paint-order="fill stroke markers" d=" M 565.0499552400001 190.6506865963613 L 375.1750384483794 775.025592128458" stroke-opacity="0.8" stroke-linecap="round" stroke-linejoin="round" stroke-miterlimit="10" stroke-width="2.5"/><path fill="none" stroke="rgb(97,97,97)" paint-order="fill stroke markers" d=" M 565.0499552400001 190.6506865963613 L 754.9248720316209 775.025592128458" stroke-opacity="0.8" stroke-linecap="round" stroke-linejoin="round" stroke-miterlimit="10" stroke-width="2.5"/><path fill="none" stroke="rgb(97,97,97)" paint-order="fill stroke markers" d=" M 375.1750384483794 775.025592128458 L 754.9248720316209 775.025592128458" stroke-opacity="0.8" stroke-linecap="round" stroke-linejoin="round" stroke-miterlimit="10" stroke-width="2.5"/><path fill="rgb(21,101,192)" stroke="none" paint-order="stroke fill markers" d=" M 380.1750384483794 775.025592128458 C 380.1750384483794 777.787015877612 377.93646219753333 780.025592128458 375.1750384483794 780.025592128458 C 372.41361469922543 780.025592128458 370.1750384483794 777.787015877612 370.1750384483794 775.025592128458 C 370.1750384483794 772.264168379304 372.41361469922543 770.025592128458 375.1750384483794 770.025592128458 C 377.93646219753333 770.025592128458 380.1750384483794 772.264168379304 380.1750384483794 775.025592128458 Z" fill-opacity="1"/><path fill="none" stroke="rgb(0,0,0)" paint-order="fill stroke markers" d=" M 380.1750384483794 775.025592128458 C 380.1750384483794 777.787015877612 377.93646219753333 780.025592128458 375.1750384483794 780.025592128458 C 372.41361469922543 780.025592128458 370.1750384483794 777.787015877612 370.1750384483794 775.025592128458 C 370.1750384483794 772.264168379304 372.41361469922543 770.025592128458 375.1750384483794 770.025592128458 C 377.93646219753333 770.025592128458 380.1750384483794 772.264168379304 380.1750384483794 775.025592128458 Z" stroke-opacity="1" stroke-linecap="round" stroke-linejoin="round" stroke-miterlimit="10"/><text fill="rgb(21,101,192)" stroke="none" font-family="geogebra-sans-serif, sans-serif" font-size="16px" font-style="normal" font-weight="normal" text-decoration="normal" x="379" y="765" text-anchor="start" dominant-baseline="alphabetic" fill-opacity="1">A</text><text fill="none" stroke="rgb(255,255,255)" font-family="geogebra-sans-serif, sans-serif" font-size="16px" font-style="normal" font-weight="normal" text-decoration="normal" x="379" y="765" text-anchor="start" dominant-baseline="alphabetic" stroke-opacity="1" stroke-linejoin="bevel" stroke-miterlimit="10" stroke-width="3">A</text><text fill="rgb(21,101,192)" stroke="none" font-family="geogebra-sans-serif, sans-serif" font-size="16px" font-style="normal" font-weight="normal" text-decoration="normal" x="379" y="765" text-anchor="start" dominant-baseline="alphabetic" fill-opacity="1">A</text><path fill="rgb(21,101,192)" stroke="none" paint-order="stroke fill markers" d=" M 759.9248720316209 775.025592128458 C 759.9248720316209 777.787015877612 757.6862957807749 780.025592128458 754.9248720316209 780.025592128458 C 752.1634482824669 780.025592128458 749.9248720316209 777.787015877612 749.9248720316209 775.025592128458 C 749.9248720316209 772.264168379304 752.1634482824669 770.025592128458 754.9248720316209 770.025592128458 C 757.6862957807749 770.025592128458 759.9248720316209 772.264168379304 759.9248720316209 775.025592128458 Z" fill-opacity="1"/><path fill="none" stroke="rgb(0,0,0)" paint-order="fill stroke markers" d=" M 759.9248720316209 775.025592128458 C 759.9248720316209 777.787015877612 757.6862957807749 780.025592128458 754.9248720316209 780.025592128458 C 752.1634482824669 780.025592128458 749.9248720316209 777.787015877612 749.9248720316209 775.025592128458 C 749.9248720316209 772.264168379304 752.1634482824669 770.025592128458 754.9248720316209 770.025592128458 C 757.6862957807749 770.025592128458 759.9248720316209 772.264168379304 759.9248720316209 775.025592128458 Z" stroke-opacity="1" stroke-linecap="round" stroke-linejoin="round" stroke-miterlimit="10"/><text fill="rgb(21,101,192)" stroke="none" font-family="geogebra-sans-serif, sans-serif" font-size="16px" font-style="normal" font-weight="normal" text-decoration="normal" x="759" y="765" text-anchor="start" dominant-baseline="alphabetic" fill-opacity="1">B</text><text fill="none" stroke="rgb(255,255,255)" font-family="geogebra-sans-serif, sans-serif" font-size="16px" font-style="normal" font-weight="normal" text-decoration="normal" x="759" y="765" text-anchor="start" dominant-baseline="alphabetic" stroke-opacity="1" stroke-linejoin="bevel" stroke-miterlimit="10" stroke-width="3">B</text><text fill="rgb(21,101,192)" stroke="none" font-family="geogebra-sans-serif, sans-serif" font-size="16px" font-style="normal" font-weight="normal" text-decoration="normal" x="759" y="765" text-anchor="start" dominant-baseline="alphabetic" fill-opacity="1">B</text><path fill="rgb(97,97,97)" stroke="none" paint-order="stroke fill markers" d=" M 569.0499552400001 190.6506865963613 C 569.0499552400001 192.85982559568447 567.2590942393233 194.6506865963613 565.0499552400001 194.6506865963613 C 562.840816240677 194.6506865963613 561.0499552400001 192.85982559568447 561.0499552400001 190.6506865963613 C 561.0499552400001 188.44154759703812 562.840816240677 186.6506865963613 565.0499552400001 186.6506865963613 C 567.2590942393233 186.6506865963613 569.0499552400001 188.44154759703812 569.0499552400001 190.6506865963613 Z" fill-opacity="1"/><path fill="none" stroke="rgb(0,0,0)" paint-order="fill stroke markers" d=" M 569.0499552400001 190.6506865963613 C 569.0499552400001 192.85982559568447 567.2590942393233 194.6506865963613 565.0499552400001 194.6506865963613 C 562.840816240677 194.6506865963613 561.0499552400001 192.85982559568447 561.0499552400001 190.6506865963613 C 561.0499552400001 188.44154759703812 562.840816240677 186.6506865963613 565.0499552400001 186.6506865963613 C 567.2590942393233 186.6506865963613 569.0499552400001 188.44154759703812 569.0499552400001 190.6506865963613 Z" stroke-opacity="1" stroke-linecap="round" stroke-linejoin="round" stroke-miterlimit="10"/><text fill="rgb(97,97,97)" stroke="none" font-family="geogebra-sans-serif, sans-serif" font-size="16px" font-style="normal" font-weight="normal" text-decoration="normal" x="569" y="183" text-anchor="start" dominant-baseline="alphabetic" fill-opacity="1">K</text><text fill="none" stroke="rgb(255,255,255)" font-family="geogebra-sans-serif, sans-serif" font-size="16px" font-style="normal" font-weight="normal" text-decoration="normal" x="569" y="183" text-anchor="start" dominant-baseline="alphabetic" stroke-opacity="1" stroke-linejoin="bevel" stroke-miterlimit="10" stroke-width="3">K</text><text fill="rgb(97,97,97)" stroke="none" font-family="geogebra-sans-serif, sans-serif" font-size="16px" font-style="normal" font-weight="normal" text-decoration="normal" x="569" y="183" text-anchor="start" dominant-baseline="alphabetic" fill-opacity="1">K</text></g></g></svg>